<svg height="512" viewBox="0 0 256 256" width="512" xmlns="http://www.w3.org/2000/svg"><path d="m223.141 35.411c-21.026-23.278-36.416 24.277-46.348 41.933a24.239 24.239 0 0 1 -9.56 9.893c-8.793 4.652-19.37-1.959-19.37-11.907a18.079 18.079 0 0 1 3.042-10.056 38.84 38.84 0 0 0 6.338-21.587c0-19.2-13.093-34.76-29.243-34.76s-29.243 15.563-29.243 34.76a38.84 38.84 0 0 0 6.343 21.587 18.079 18.079 0 0 1 3.042 10.056c0 9.961-10.6 16.569-19.395 11.895a24.277 24.277 0 0 1 -9.535-9.881c-9.937-17.656-25.327-65.211-46.353-41.933-30.898 34.209-44.14 56.279-11.035 45.244 11.516-3.839-6.621 34.209 19.863 34.209s3.313 36.416 26.485 36.416 33.084 7.136 36.415 17.656c17.913 56.564 47.929 23.174 64.482 52.964 19.2 34.568 46.561 30.73 57.791 27.307a1.669 1.669 0 0 0 -.061-3.2c-45.051-12.829-23.32-54.481-53.316-57.208-24.277-2.207-22.07-19.863-22.07-19.863 0-11.035 13.242-17.656 36.415-17.656s0-36.416 26.485-36.416 8.347-38.048 19.863-34.209c33.105 11.035 19.863-11.035-11.035-45.244z" fill="#dae6f1"/><g fill="#ef4460"><path d="m133.65 41.761a6.173 6.173 0 0 0 6.7 5c3.354-.482 5.72-3.886 5.285-7.6a7.2 7.2 0 0 0 -.967-2.863 24.062 24.062 0 0 1 -11.018 5.463z"/><path d="m122.35 41.761a6.173 6.173 0 0 1 -6.7 5c-3.354-.482-5.72-3.886-5.285-7.6a7.2 7.2 0 0 1 .967-2.863 24.062 24.062 0 0 0 11.018 5.463z"/><path d="m81.372 18.738h-2.266v-2.266a3.071 3.071 0 1 0 -6.142 0v2.266h-2.264a3.071 3.071 0 1 0 0 6.142h2.265v2.267a3.071 3.071 0 0 0 6.142 0v-2.267h2.266a3.071 3.071 0 0 0 0-6.142z"/></g><path d="m214.857 178.782a10.8 10.8 0 0 1 -8.657-8.482.2.2 0 0 0 -.384 0 10.8 10.8 0 0 1 -8.654 8.478.19.19 0 0 0 0 .376 10.8 10.8 0 0 1 8.654 8.478.2.2 0 0 0 .384 0 10.8 10.8 0 0 1 8.654-8.478.19.19 0 0 0 .003-.372z" fill="#f5c84c"/><path d="m83.841 175.314a7.762 7.762 0 0 1 -6.223-6.1.14.14 0 0 0 -.276 0 7.763 7.763 0 0 1 -6.224 6.1.137.137 0 0 0 0 .271 7.764 7.764 0 0 1 6.224 6.1.14.14 0 0 0 .276 0 7.763 7.763 0 0 1 6.223-6.1.137.137 0 0 0 0-.271z" fill="#87d147"/><circle cx="209.019" cy="204.427" fill="#70d6f9" r="3.285"/><circle cx="16.019" cy="113.427" fill="#70d6f9" r="3.285"/><circle cx="94.019" cy="5.427" fill="#f5c84c" r="3.285"/><circle cx="227.019" cy="129.427" fill="#ef4460" r="3.285"/><path d="m212.568 253.859c-13.688 0-31.794-5.736-45.685-30.74-6.283-11.319-14.483-12.629-23.983-14.146-13.949-2.228-29.759-4.753-40.694-39.282-4.516-14.262-21.586-15.911-34.033-15.911-13.592 0-14.072-10.916-14.457-19.687-.47-10.684-1.259-16.729-12.027-16.729-5.526 0-9.85-1.552-12.851-4.611-5.482-5.587-5.309-14.651-5.169-21.934.053-2.757.131-6.862-.477-7.93a2.76 2.76 0 0 0 -.575.137c-12.184 4.062-18.833 4.014-21.559-.155-2.997-4.585-1.783-14.008 29.942-49.136 4.867-5.388 9.953-7.734 15.124-6.973 12.501 1.838 21.865 21.638 29.39 37.538 2.114 4.468 4.111 8.688 5.872 11.818a21.806 21.806 0 0 0 8.529 8.9 10.486 10.486 0 0 0 10.4-.313 10.861 10.861 0 0 0 5.322-9.374 15.53 15.53 0 0 0 -2.62-8.667 41.115 41.115 0 0 1 -6.76-22.976c0-20.546 14.243-37.261 31.743-37.261s31.743 16.715 31.743 37.261a41.1 41.1 0 0 1 -6.761 22.976 15.536 15.536 0 0 0 -2.619 8.666 10.864 10.864 0 0 0 5.314 9.37 10.477 10.477 0 0 0 10.387.327 21.767 21.767 0 0 0 8.55-8.908c1.76-3.13 3.757-7.35 5.871-11.818 7.525-15.9 16.89-35.7 29.387-37.539 5.172-.762 10.257 1.585 15.128 6.973 31.729 35.128 32.942 44.551 29.946 49.136-2.725 4.168-9.373 4.218-21.557.155a2.755 2.755 0 0 0 -.574-.137c-.61 1.068-.531 5.173-.478 7.93.14 7.283.313 16.347-5.169 21.934-3 3.059-7.325 4.611-12.852 4.611-10.767 0-11.556 6.045-12.026 16.729-.386 8.771-.865 19.687-14.458 19.687-21.236 0-33.915 5.666-33.915 15.156a2.673 2.673 0 0 1 -.019.31 14.623 14.623 0 0 0 3.184 9.923c3.287 4.033 8.882 6.435 16.631 7.14 15.383 1.4 18.691 12.1 22.193 23.428 3.953 12.784 8.433 27.273 31.582 33.866a4.169 4.169 0 0 1 .1 8 52.1 52.1 0 0 1 -15.02 2.256zm-189.284-175.972a4.677 4.677 0 0 1 2.83.891c2.746 2.019 2.66 6.484 2.552 12.137-.122 6.347-.273 14.248 3.739 18.337 2.054 2.094 5.091 3.112 9.282 3.112 16.077 0 16.623 12.432 17.022 21.509.43 9.8 1.047 14.907 9.462 14.907 21.974 0 34.665 6.346 38.8 19.4 10 31.588 23.583 33.757 36.716 35.855 9.88 1.578 20.1 3.21 27.567 16.654 5.94 10.692 22.694 34.174 52.138 26.887-23.4-7.7-28.3-23.541-32.266-36.363-3.38-10.932-5.822-18.83-17.87-19.925-9.193-.836-15.963-3.881-20.125-9.049a19.531 19.531 0 0 1 -4.217-13.436c.056-6.131 4.044-20.024 38.914-20.024 8.416 0 9.032-5.112 9.463-14.907.4-9.077.944-21.509 17.021-21.509 4.192 0 7.229-1.018 9.283-3.112 4.011-4.089 3.86-11.99 3.739-18.337-.108-5.653-.194-10.118 2.552-12.137a5.322 5.322 0 0 1 5.081-.5c13.57 4.524 15.6 2.138 15.79 1.852.927-1.418 1.541-8.713-29.472-43.048-3.729-4.13-7.223-5.888-10.684-5.378-9.851 1.452-18.951 20.686-25.6 34.73-2.152 4.55-4.187 8.848-6.033 12.131a26.642 26.642 0 0 1 -10.568 10.883 15.442 15.442 0 0 1 -15.3-.464 15.824 15.824 0 0 1 -7.735-13.653 20.523 20.523 0 0 1 3.463-11.446 36.123 36.123 0 0 0 5.917-20.2c0-17.789-12-32.261-26.743-32.261s-26.745 14.477-26.745 32.265a36.129 36.129 0 0 0 5.916 20.2 20.517 20.517 0 0 1 3.464 11.447 15.821 15.821 0 0 1 -7.746 13.66 15.444 15.444 0 0 1 -15.323.443 26.692 26.692 0 0 1 -10.541-10.868c-1.846-3.283-3.88-7.581-6.032-12.131-6.645-14.039-15.746-33.278-25.595-34.73-3.462-.511-6.955 1.249-10.684 5.378-31.016 34.335-30.4 41.63-29.473 43.048.187.286 2.224 2.671 15.791-1.852a7.115 7.115 0 0 1 2.25-.396z"/><path d="m132.382 44.479a2.5 2.5 0 0 1 -.353-4.975 21.68 21.68 0 0 0 12.484-6.479 2.5 2.5 0 1 1 3.58 3.492 26.651 26.651 0 0 1 -15.353 7.937 2.555 2.555 0 0 1 -.358.025z"/><path d="m139.562 49.322a8.758 8.758 0 0 1 -8.344-6.986 2.5 2.5 0 0 1 1.941-3.026 21.7 21.7 0 0 0 9.878-4.9 2.5 2.5 0 0 1 3.781.61 9.658 9.658 0 0 1 1.3 3.856c.59 5.044-2.736 9.7-7.414 10.367a8.118 8.118 0 0 1 -1.142.079zm-2.262-5.957a3.233 3.233 0 0 0 2.695.926 4 4 0 0 0 3.17-3.755 26.718 26.718 0 0 1 -5.865 2.829z"/><path d="m123.619 44.479a2.57 2.57 0 0 1 -.359-.025 26.651 26.651 0 0 1 -15.353-7.937 2.5 2.5 0 1 1 3.579-3.492 21.685 21.685 0 0 0 12.485 6.475 2.5 2.5 0 0 1 -.352 4.975z"/><path d="m116.439 49.322a8.122 8.122 0 0 1 -1.148-.082c-4.678-.673-8-5.323-7.413-10.368a9.652 9.652 0 0 1 1.3-3.855 2.5 2.5 0 0 1 3.78-.61 21.715 21.715 0 0 0 9.879 4.9 2.5 2.5 0 0 1 1.942 3.026 8.759 8.759 0 0 1 -8.34 6.989zm-3.606-8.786a4 4 0 0 0 3.167 3.755 3.236 3.236 0 0 0 2.7-.926 26.718 26.718 0 0 1 -5.867-2.829z"/><path d="m128 64.633a8.452 8.452 0 0 1 -5.022-2.171 6.6 6.6 0 0 0 -1.74-1.078 9.378 9.378 0 0 0 -2.8.537c-.742.209-1.509.426-2.274.562a2.5 2.5 0 0 1 -.874-4.923c.519-.092 1.136-.267 1.789-.451a11.97 11.97 0 0 1 4.881-.672 8.973 8.973 0 0 1 4 2.016 5.55 5.55 0 0 0 2.04 1.18 5.55 5.55 0 0 0 2.034-1.18 8.973 8.973 0 0 1 4-2.016 11.977 11.977 0 0 1 4.881.672c.654.185 1.272.36 1.793.452a2.5 2.5 0 0 1 -.871 4.923c-.767-.135-1.536-.353-2.281-.563a9.356 9.356 0 0 0 -2.8-.537 6.62 6.62 0 0 0 -1.74 1.078 8.452 8.452 0 0 1 -5.016 2.171z"/></svg>