<svg height="512" viewBox="0 0 256 256" width="512" xmlns="http://www.w3.org/2000/svg"><g fill="#ef4460"><path d="m183.49 63.064a2.213 2.213 0 0 0 -3.222-1.825 37.949 37.949 0 0 0 -13.5 11.918 39.277 39.277 0 0 1 .345 5.118v13.469a31.322 31.322 0 0 1 -1.718 10.178c18.78-.733 18.675-29.222 18.095-38.858z"/><path d="m88.889 91.745v-13.466a38.87 38.87 0 0 1 .344-5.126 37.957 37.957 0 0 0 -13.5-11.914 2.213 2.213 0 0 0 -3.222 1.825c-.58 9.636-.685 38.125 18.1 38.858a31.34 31.34 0 0 1 -1.722-10.177z"/><path d="m202.941 247.618-3.407-71.757a14.1 14.1 0 0 0 -10.634-12.888l-24.876-6.262a27.913 27.913 0 0 1 -5.528-2.032l-11.215-5.53a5.056 5.056 0 0 1 -2.82-4.535v-8.514a29.668 29.668 0 0 1 -13.082 4.374 39.143 39.143 0 0 1 -8.262-.16 29.248 29.248 0 0 1 -11.576-4.057v8.357a5.056 5.056 0 0 1 -2.82 4.535l-11.215 5.53a27.913 27.913 0 0 1 -5.528 2.032l-24.878 6.262a14.1 14.1 0 0 0 -10.635 12.888l-3.407 71.757a5.572 5.572 0 0 0 5.564 5.882h138.755a5.572 5.572 0 0 0 5.564-5.882z"/><path d="m167.109 78.275a38.945 38.945 0 0 0 -3.142-15.375c-6.271-14.634-26.652-15.736-34.741-2.024a1.423 1.423 0 0 1 -2.452 0l-.007-.011c-8.028-13.61-28.307-12.694-34.629 1.787a38.732 38.732 0 0 0 -2.632 8.683h.009a39.1 39.1 0 0 0 -.625 6.941v13.3a31.63 31.63 0 0 0 3.762 15.064 97.875 97.875 0 0 1 6.212 13.841 29.833 29.833 0 0 0 24.19 19.823 39.147 39.147 0 0 0 8.465.156 30.426 30.426 0 0 0 25.725-20.281 98.2 98.2 0 0 1 6.116-13.558 31.522 31.522 0 0 0 3.751-15.014z"/></g><path d="m202.294 107.805a22.207 22.207 0 0 0 -12.662-12.058 26.826 26.826 0 0 1 .332 14.386 4.247 4.247 0 0 0 4.965 5.239 18.462 18.462 0 0 0 5.589-2.227 4.247 4.247 0 0 0 1.776-5.34z" fill="#fcdd86"/><path d="m208.4 124.921a2.138 2.138 0 0 0 -2.689 2.558l11.447 40.335c8.371-30.743 34.087-38.836 34.087-38.836l-.037-.015c-12.851.26-29.878-.307-42.808-4.042z" fill="#5b5d60"/><path d="m53.706 107.805a22.207 22.207 0 0 1 12.662-12.058 26.826 26.826 0 0 0 -.332 14.386 4.247 4.247 0 0 1 -4.965 5.239 18.462 18.462 0 0 1 -5.589-2.227 4.247 4.247 0 0 1 -1.776-5.34z" fill="#fcdd86"/><path d="m47.6 124.921a2.138 2.138 0 0 1 2.689 2.558l-11.451 40.335c-8.371-30.743-34.087-38.836-34.087-38.836l.037-.015c12.855.26 29.882-.307 42.812-4.042z" fill="#5b5d60"/><path d="m164.023 156.711 24.875 6.262a14.06 14.06 0 0 1 7.188 4.423 56.6 56.6 0 0 1 13.859 2.533l-15.449-38.4a2.134 2.134 0 0 0 -3.6-.313c-3.7 4.916-15 15.743-28.668 24.97.591.193 1.189.373 1.795.525z" fill="#5b5d60"/><path d="m251.738 124.643c-18.392-3.631-37.8-8.458-49.2-14.347a4.308 4.308 0 0 1 -2.024 2.849 18.462 18.462 0 0 1 -5.589 2.227 4.19 4.19 0 0 1 -4.521-2.024c-11.323 17.486-29 29.936-40.878 36.91l8.965 4.421a27.992 27.992 0 0 0 3.735 1.509c13.663-9.228 24.966-20.056 28.663-24.972a2.134 2.134 0 0 1 3.6.313l17.8 44.25c1.622 4.031 7.68 1.959 6.494-2.221l-13.077-46.079a2.138 2.138 0 0 1 2.689-2.558c12.975 3.75 30.085 4.307 42.958 4.039a2.179 2.179 0 0 0 .385-4.317z" fill="#818182"/><path d="m65.107 131.216c3.7 4.916 15 15.744 28.663 24.972a27.992 27.992 0 0 0 3.735-1.509l8.965-4.421c-11.879-6.974-29.555-19.424-40.878-36.91a4.19 4.19 0 0 1 -4.521 2.024 18.472 18.472 0 0 1 -5.589-2.227 4.308 4.308 0 0 1 -2.024-2.849c-11.394 5.889-30.8 10.716-49.2 14.347a2.179 2.179 0 0 0 .376 4.317c12.873.268 29.983-.289 42.958-4.039a2.138 2.138 0 0 1 2.689 2.558l-13.073 46.079c-1.186 4.18 4.872 6.252 6.494 2.221l17.8-44.25a2.134 2.134 0 0 1 3.605-.313z" fill="#818182"/><path d="m67.1 162.973 24.875-6.262c.606-.152 1.2-.332 1.8-.525-13.664-9.227-24.971-20.054-28.668-24.97a2.134 2.134 0 0 0 -3.6.313l-15.449 38.4a56.6 56.6 0 0 1 13.856-2.529 14.06 14.06 0 0 1 7.186-4.427z" fill="#5b5d60"/><path d="m180.543 3.684a1.628 1.628 0 0 0 -3.1-.1 44.071 44.071 0 0 1 -21.326 24.666 4.05 4.05 0 0 0 -2.087 4.3c.609 3.406 2.885 8.639 10.9 10.954a3.985 3.985 0 0 0 3.784-.907c4.756-4.352 17.677-18.444 11.829-38.913z" fill="#ef4460"/><path d="m75.457 3.684a1.628 1.628 0 0 1 3.1-.1 44.071 44.071 0 0 0 21.326 24.666 4.05 4.05 0 0 1 2.087 4.3c-.609 3.406-2.885 8.639-10.9 10.954a3.985 3.985 0 0 1 -3.784-.907c-4.756-4.352-17.677-18.444-11.829-38.913z" fill="#ef4460"/><path d="m89.233 73.153q.121-.915.282-1.818h-.009a38.732 38.732 0 0 1 2.632-8.683c6.322-14.481 26.6-15.4 34.629-1.787l.007.011a1.423 1.423 0 0 0 2.452 0c8.089-13.712 28.47-12.61 34.741 2.024a38.836 38.836 0 0 1 2.8 10.277v-.019a40.167 40.167 0 0 1 6.928-7.554v-1.373a45.484 45.484 0 0 0 -5.307-21.375 3.969 3.969 0 0 1 -3.459.645c-8.011-2.315-10.287-7.548-10.9-10.954a4.05 4.05 0 0 1 2.087-4.3l.016-.009a45.476 45.476 0 0 0 -28.132-9.7 45.476 45.476 0 0 0 -28.133 9.7l.016.009a4.05 4.05 0 0 1 2.087 4.3c-.609 3.406-2.885 8.639-10.9 10.954a3.969 3.969 0 0 1 -3.459-.645 45.484 45.484 0 0 0 -5.307 21.375v1.369a40.135 40.135 0 0 1 6.929 7.553z" fill="#5b5d60"/><path d="m148.672 80.82c-3.7 1.051-7.282 2.66-10.165 3.5a5.184 5.184 0 0 0 -.238 2.71c.582 3.167 4.016 5.188 7.67 4.516s6.142-3.784 5.56-6.95a5.476 5.476 0 0 0 -2.827-3.776z" fill="#f5c84c"/><path d="m107.328 80.82c3.7 1.051 7.282 2.66 10.165 3.5a5.184 5.184 0 0 1 .238 2.71c-.582 3.167-4.016 5.188-7.67 4.516s-6.142-3.784-5.56-6.95a5.476 5.476 0 0 1 2.827-3.776z" fill="#f5c84c"/><path d="m145.016 106.986.892 11.606a1.506 1.506 0 0 1 -2.6 1.146l-8.507-9.075a37.28 37.28 0 0 0 10.215-3.677z" fill="#edf4fc"/><path d="m121.2 110.663-8.507 9.075a1.506 1.506 0 0 1 -2.6-1.146l.892-11.606a37.28 37.28 0 0 0 10.215 3.677z" fill="#edf4fc"/><path d="m78.224 255.824a2.5 2.5 0 0 1 -2.5-2.5v-52.438a2.5 2.5 0 0 1 5 0v52.438a2.5 2.5 0 0 1 -2.5 2.5z"/><path d="m177.776 255.824a2.5 2.5 0 0 1 -2.5-2.5v-52.438a2.5 2.5 0 0 1 5 0v52.438a2.5 2.5 0 0 1 -2.5 2.5z"/><path d="m206.372 31.738h-2.266v-2.266a3.071 3.071 0 1 0 -6.142 0v2.266h-2.264a3.071 3.071 0 0 0 0 6.142h2.265v2.267a3.071 3.071 0 1 0 6.142 0v-2.267h2.266a3.071 3.071 0 0 0 0-6.142z" fill="#ef4460"/><path d="m55.857 72.782a10.8 10.8 0 0 1 -8.657-8.482.2.2 0 0 0 -.384 0 10.8 10.8 0 0 1 -8.654 8.478.19.19 0 0 0 0 .376 10.8 10.8 0 0 1 8.654 8.478.2.2 0 0 0 .384 0 10.8 10.8 0 0 1 8.654-8.478.19.19 0 0 0 .003-.372z" fill="#f5c84c"/><circle cx="207.019" cy="64.285" fill="#70d6f9" r="3.285"/><circle cx="218.019" cy="195.285" fill="#f5c84c" r="3.285"/><circle cx="60.019" cy="9.285" fill="#70d6f9" r="3.285"/><circle cx="31.019" cy="96.285" fill="#87d147" r="3.285"/><path d="m165.392 104.422a2.5 2.5 0 0 1 -2.365-3.311 28.779 28.779 0 0 0 1.583-9.367v-13.468a37.012 37.012 0 0 0 -.324-4.8 2.5 2.5 0 0 1 .436-1.766 40.259 40.259 0 0 1 14.417-12.706 4.713 4.713 0 0 1 6.848 3.906c.456 7.592.594 26.273-7.964 35.722a17.21 17.21 0 0 1 -12.532 5.783c-.034.007-.067.007-.099.007zm3.97-30.591a41.315 41.315 0 0 1 .247 4.444v13.468a33.338 33.338 0 0 1 -.765 7.1 12.087 12.087 0 0 0 5.471-3.559c7.294-8.055 7.025-25.688 6.7-31.618a35.1 35.1 0 0 0 -11.653 10.165z"/><path d="m90.608 104.422c-.032 0-.065 0-.1 0a17.213 17.213 0 0 1 -12.533-5.783c-8.558-9.449-8.42-28.13-7.964-35.722a4.714 4.714 0 0 1 6.848-3.907 40.27 40.27 0 0 1 14.414 12.7 2.5 2.5 0 0 1 .435 1.772 36.5 36.5 0 0 0 -.321 4.8v13.463a28.771 28.771 0 0 0 1.583 9.365 2.5 2.5 0 0 1 -2.365 3.312zm-15.629-40.759c-.32 5.931-.588 23.564 6.7 31.618a12.087 12.087 0 0 0 5.471 3.559 33.377 33.377 0 0 1 -.765-7.095v-13.466a41.279 41.279 0 0 1 .244-4.453 35.081 35.081 0 0 0 -11.65-10.163z"/><path d="m197.377 256h-138.754a8.071 8.071 0 0 1 -8.06-8.521l3.406-71.736a16.531 16.531 0 0 1 12.522-15.195l24.875-6.261a25.469 25.469 0 0 0 5.033-1.85l11.215-5.53a2.54 2.54 0 0 0 1.426-2.293v-8.357a2.5 2.5 0 0 1 3.8-2.134 26.6 26.6 0 0 0 10.587 3.71 36.617 36.617 0 0 0 7.734.15 26.982 26.982 0 0 0 11.98-4.007 2.5 2.5 0 0 1 3.817 2.125v8.513a2.538 2.538 0 0 0 1.425 2.292l11.216 5.531a25.437 25.437 0 0 0 5.032 1.85l24.876 6.261a16.526 16.526 0 0 1 12.522 15.174l3.407 71.769a8.072 8.072 0 0 1 -8.059 8.509zm-83.337-115.624v4.238a7.51 7.51 0 0 1 -4.215 6.778l-11.215 5.529a30.413 30.413 0 0 1 -6.023 2.215l-24.875 6.264a11.548 11.548 0 0 0 -8.75 10.6l-3.406 71.736a3.073 3.073 0 0 0 3.067 3.264h138.754a3.073 3.073 0 0 0 3.068-3.243v-.021l-3.406-71.756a11.544 11.544 0 0 0 -8.75-10.583l-24.875-6.261a30.493 30.493 0 0 1 -6.023-2.215l-11.215-5.53a7.507 7.507 0 0 1 -4.215-6.777v-4.361a32.177 32.177 0 0 1 -10.366 2.712 41.662 41.662 0 0 1 -8.791-.171 31.468 31.468 0 0 1 -8.764-2.418z"/><path d="m128 143.12a41.7 41.7 0 0 1 -5.264-.334 32.141 32.141 0 0 1 -26.23-21.472 94.794 94.794 0 0 0 -6.054-13.481 34.243 34.243 0 0 1 -4.062-16.255v-13.3a41.717 41.717 0 0 1 .625-7.157c.006-.076.016-.152.029-.228a41.367 41.367 0 0 1 2.8-9.243 21.306 21.306 0 0 1 18.583-12.91 22.124 22.124 0 0 1 19.573 9.421 22.064 22.064 0 0 1 19.587-9.39 21.439 21.439 0 0 1 18.678 13.144 41.327 41.327 0 0 1 3.344 16.36v13.334a34.1 34.1 0 0 1 -4.052 16.2 95.018 95.018 0 0 0 -5.959 13.207 33.011 33.011 0 0 1 -27.856 21.93c-1.242.117-2.492.174-3.742.174zm-36-71.558c-.006.073-.016.146-.029.219a36.738 36.738 0 0 0 -.586 6.5v13.3a29.21 29.21 0 0 0 3.461 13.875 99.866 99.866 0 0 1 6.371 14.2 27.169 27.169 0 0 0 22.149 18.175 36.742 36.742 0 0 0 7.922.146 28 28 0 0 0 23.6-18.632 99.992 99.992 0 0 1 6.272-13.907 29.1 29.1 0 0 0 3.448-13.824v-13.339a36.357 36.357 0 0 0 -2.94-14.391 16.523 16.523 0 0 0 -14.4-10.123 16.869 16.869 0 0 0 -15.888 8.385 3.923 3.923 0 0 1 -6.758 0 17.152 17.152 0 0 0 -15.888-8.415 16.392 16.392 0 0 0 -14.3 9.92 36.34 36.34 0 0 0 -2.429 7.911z"/><path d="m194.04 117.966a6.661 6.661 0 0 1 -4.813-2.057 6.77 6.77 0 0 1 -1.687-6.388 24.639 24.639 0 0 0 -.262-12.932 2.5 2.5 0 0 1 3.232-3.183 24.86 24.86 0 0 1 14.074 13.4 6.751 6.751 0 0 1 -2.793 8.494 21.033 21.033 0 0 1 -6.345 2.522 6.807 6.807 0 0 1 -1.406.144zm-.931-17.62a29.928 29.928 0 0 1 -.721 10.4 1.782 1.782 0 0 0 .442 1.7 1.656 1.656 0 0 0 1.582.484 16.065 16.065 0 0 0 4.833-1.933 1.747 1.747 0 0 0 .759-2.185 19.844 19.844 0 0 0 -6.895-8.466z"/><path d="m217.162 170.314a2.5 2.5 0 0 1 -2.405-1.817l-11.447-40.335a4.638 4.638 0 0 1 5.788-5.643c12.819 3.7 29.95 4.19 42.064 3.944a2.433 2.433 0 0 1 1 .189 2.528 2.528 0 0 1 1.562 2.427 2.494 2.494 0 0 1 -1.724 2.283c-.24.077-24.537 8.134-32.426 37.109a2.5 2.5 0 0 1 -2.4 1.843zm-8.846-42.814 9.056 31.9a59.066 59.066 0 0 1 23.228-27.943c-10.518-.235-22.476-1.227-32.284-3.957z"/><path d="m61.96 117.966a6.807 6.807 0 0 1 -1.406-.148 21.033 21.033 0 0 1 -6.345-2.522 6.751 6.751 0 0 1 -2.793-8.494 24.86 24.86 0 0 1 14.074-13.4 2.5 2.5 0 0 1 3.229 3.198 24.64 24.64 0 0 0 -.259 12.923 6.77 6.77 0 0 1 -1.687 6.388 6.661 6.661 0 0 1 -4.813 2.055zm-5.96-9.158a1.747 1.747 0 0 0 .758 2.185 16.081 16.081 0 0 0 4.834 1.933 1.657 1.657 0 0 0 1.582-.484 1.782 1.782 0 0 0 .442-1.7 29.928 29.928 0 0 1 -.721-10.4 19.844 19.844 0 0 0 -6.895 8.466z"/><path d="m38.838 170.314h-.013a2.5 2.5 0 0 1 -2.4-1.843c-7.92-29.089-32.18-37.032-32.425-37.109a2.5 2.5 0 0 1 -.2-4.695 2.744 2.744 0 0 1 1.042-.2c12.117.249 29.245-.239 42.064-3.944a4.638 4.638 0 0 1 5.809 5.563l-11.472 40.414a2.5 2.5 0 0 1 -2.405 1.814zm-23.438-38.857a59.087 59.087 0 0 1 23.228 27.943l9.054-31.9c-9.807 2.73-21.765 3.722-32.282 3.957zm32.894-4.134-.694-2.4z"/><path d="m209.944 172.429a2.469 2.469 0 0 1 -.743-.114 54.588 54.588 0 0 0 -13.238-2.422 2.5 2.5 0 0 1 -1.763-.856 11.549 11.549 0 0 0 -5.912-3.64l-24.875-6.261c-.6-.151-1.237-.338-1.959-.572a2.5 2.5 0 0 1 -.626-4.45c13.622-9.2 24.613-19.806 28.068-24.4a4.635 4.635 0 0 1 7.823.668c.035.07.068.141.1.214l15.445 38.404a2.5 2.5 0 0 1 -2.32 3.433zm-12.71-7.469a56.718 56.718 0 0 1 8.523 1.259l-13.267-32.979c-4.041 5.135-13.414 13.931-24.427 21.91l21.446 5.4a16.5 16.5 0 0 1 7.725 4.41z"/><path d="m215.375 180.458a5.775 5.775 0 0 1 -5.4-3.746l-17.485-43.472c-4.576 5.816-15.983 16.322-28.86 25.019a2.5 2.5 0 0 1 -2.17.307 30.5 30.5 0 0 1 -4.07-1.645l-8.965-4.421a2.5 2.5 0 0 1 -.16-4.4c12.262-7.2 29.165-19.311 40.045-36.114a2.465 2.465 0 0 1 2.159-1.14 2.5 2.5 0 0 1 2.1 1.244 1.708 1.708 0 0 0 1.841.833 16.06 16.06 0 0 0 4.834-1.933 1.818 1.818 0 0 0 .848-1.2 2.5 2.5 0 0 1 3.6-1.719c9.418 4.868 25.747 9.617 48.533 14.115a4.679 4.679 0 0 1 -.809 9.269c-12.321.255-29.712-.231-43.1-3.964l12.881 45.38a5.8 5.8 0 0 1 -3.79 7.238 6.25 6.25 0 0 1 -2.032.349zm-22.79-52.591c.132 0 .264.006.4.017a4.622 4.622 0 0 1 3.737 2.5c.035.07.068.141.1.214l17.8 44.25a.937.937 0 0 0 1.77-.606l-13.082-46.08a4.638 4.638 0 0 1 5.789-5.643c11.834 3.42 27.343 4.1 39.213 3.987-20.055-4.079-35.04-8.4-44.633-12.87a6.757 6.757 0 0 1 -1.888 1.66 21.033 21.033 0 0 1 -6.345 2.522 6.681 6.681 0 0 1 -4.583-.667c-10.215 14.645-24.542 25.63-36.137 32.882l4.875 2.4c.721.355 1.478.682 2.263.976 13.136-9.028 23.662-19.22 27.031-23.7a4.6 4.6 0 0 1 3.69-1.842zm58.669-.773h.009l.475-2.454z"/><path d="m40.625 180.458a6.25 6.25 0 0 1 -2.032-.345 5.8 5.8 0 0 1 -3.79-7.238l12.879-45.375c-13.386 3.734-30.777 4.22-43.1 3.964a4.679 4.679 0 0 1 -.809-9.269c22.785-4.5 39.115-9.247 48.533-14.115a2.5 2.5 0 0 1 3.6 1.719 1.82 1.82 0 0 0 .847 1.2 16.081 16.081 0 0 0 4.834 1.933 1.7 1.7 0 0 0 1.842-.833 2.5 2.5 0 0 1 2.1-1.244 2.41 2.41 0 0 1 2.159 1.14c10.882 16.8 27.783 28.914 40.046 36.114a2.5 2.5 0 0 1 -.16 4.4l-8.966 4.421a30.5 30.5 0 0 1 -4.07 1.645 2.5 2.5 0 0 1 -2.17-.307c-12.877-8.7-24.284-19.2-28.86-25.019l-17.487 43.463a5.776 5.776 0 0 1 -5.396 3.746zm7.6-58.128a4.64 4.64 0 0 1 4.488 5.752l-13.1 46.158a.937.937 0 0 0 1.77.606l17.8-44.25c.029-.073.062-.144.1-.214a4.635 4.635 0 0 1 7.823-.668c3.369 4.479 13.895 14.671 27.031 23.7.785-.294 1.542-.621 2.263-.976l4.875-2.4c-11.595-7.251-25.921-18.236-36.137-32.882a6.676 6.676 0 0 1 -4.583.667 21.033 21.033 0 0 1 -6.345-2.522 6.773 6.773 0 0 1 -1.888-1.66c-9.593 4.469-24.578 8.791-44.632 12.869 11.882.113 27.38-.567 39.213-3.986a4.777 4.777 0 0 1 1.32-.194z"/><path d="m46.056 172.429a2.5 2.5 0 0 1 -2.32-3.429l15.449-38.4c.029-.073.062-.144.1-.214a4.635 4.635 0 0 1 7.823-.668c3.454 4.593 14.446 15.2 28.069 24.4a2.5 2.5 0 0 1 -.627 4.45c-.732.237-1.355.419-1.96.572l-24.878 6.26a11.549 11.549 0 0 0 -5.912 3.64 2.5 2.5 0 0 1 -1.763.856 54.588 54.588 0 0 0 -13.237 2.419 2.469 2.469 0 0 1 -.744.114zm17.458-39.185-13.271 32.975a56.718 56.718 0 0 1 8.523-1.259 16.5 16.5 0 0 1 7.725-4.412l21.446-5.4c-11.013-7.978-20.386-16.773-24.427-21.908z"/><path d="m165.988 46.15a6.3 6.3 0 0 1 -1.757-.248c-9.5-2.744-12.01-9.27-12.662-12.916a6.532 6.532 0 0 1 3.377-6.945 41.716 41.716 0 0 0 20.131-23.27 4.129 4.129 0 0 1 7.87.227c6.3 22.055-8.013 37.3-12.55 41.441a6.56 6.56 0 0 1 -4.409 1.711zm12.812-39.111a46.755 46.755 0 0 1 -21.512 23.42 1.548 1.548 0 0 0 -.8 1.647c.547 3.058 2.574 7.1 9.129 8.993a1.483 1.483 0 0 0 1.4-.35c4.889-4.461 15.407-16.386 11.783-33.71z"/><path d="m90.012 46.15a6.56 6.56 0 0 1 -4.412-1.711c-4.534-4.146-18.848-19.386-12.547-41.439a4.129 4.129 0 0 1 7.87-.227 41.716 41.716 0 0 0 20.131 23.27 6.532 6.532 0 0 1 3.377 6.945c-.652 3.646-3.163 10.172-12.663 12.917a6.328 6.328 0 0 1 -1.756.245zm-12.812-39.111c-3.625 17.324 6.893 29.249 11.775 33.709a1.487 1.487 0 0 0 1.4.352c6.556-1.9 8.583-5.936 9.13-8.994a1.548 1.548 0 0 0 -.8-1.647 46.755 46.755 0 0 1 -21.505-23.42z"/><path d="m166.763 75.676a2.5 2.5 0 0 1 -2.476-2.177 36.346 36.346 0 0 0 -2.618-9.615 16.523 16.523 0 0 0 -14.4-10.123 16.869 16.869 0 0 0 -15.888 8.385 3.923 3.923 0 0 1 -6.758 0 17.157 17.157 0 0 0 -15.887-8.415 16.393 16.393 0 0 0 -14.3 9.921 36.256 36.256 0 0 0 -2.424 7.914c-.007.072-.017.143-.029.216-.1.553-.186 1.112-.261 1.674-.006.046-.012.092-.021.138a2.5 2.5 0 0 1 -4.562.918 37.878 37.878 0 0 0 -6.43-6.993 2.5 2.5 0 0 1 -.894-1.916v-1.373a48.291 48.291 0 0 1 5.6-22.546 2.5 2.5 0 0 1 3.7-.837 1.482 1.482 0 0 0 1.276.253c6.556-1.9 8.583-5.936 9.13-8.994a1.548 1.548 0 0 0 -.8-1.647c-.029-.015-.067-.037-.095-.053a2.5 2.5 0 0 1 -.292-4.134 48.141 48.141 0 0 1 59.348 0 2.5 2.5 0 0 1 -.343 4.164l-.1.05a1.534 1.534 0 0 0 -.744 1.62c.547 3.058 2.574 7.1 9.129 8.993a1.481 1.481 0 0 0 1.277-.252 2.5 2.5 0 0 1 3.7.837 48.291 48.291 0 0 1 5.6 22.546v1.37a2.5 2.5 0 0 1 -.894 1.916 37.867 37.867 0 0 0 -6.358 6.891 2.5 2.5 0 0 1 -1.916 1.253c-.096.011-.183.016-.27.016zm-20.631-26.951c.484 0 .968.015 1.455.046a21.439 21.439 0 0 1 18.678 13.144 40.884 40.884 0 0 1 1.909 5.523 42.092 42.092 0 0 1 3.018-2.979v-.229a43.328 43.328 0 0 0 -4.016-18.192 6.364 6.364 0 0 1 -2.944-.136c-9.5-2.744-12.011-9.27-12.663-12.916a6.553 6.553 0 0 1 .767-4.431 43.155 43.155 0 0 0 -48.671 0 6.557 6.557 0 0 1 .766 4.431c-.652 3.646-3.163 10.172-12.663 12.917a6.419 6.419 0 0 1 -2.944.136 43.32 43.32 0 0 0 -4.016 18.191v.229a42.127 42.127 0 0 1 3.012 2.972 41.2 41.2 0 0 1 2.027-5.78 21.307 21.307 0 0 1 18.584-12.91 22.114 22.114 0 0 1 19.569 9.42 22.027 22.027 0 0 1 18.132-9.436z"/><path d="m135.858 87.307a5.32 5.32 0 0 1 -4.034-1.627c-2.508-2.665-1.44-7.255-1.2-8.148a2.5 2.5 0 0 1 4.831 1.288c-.369 1.414-.307 3.134.011 3.433a2.023 2.023 0 0 0 1.144-.033 41.448 41.448 0 0 0 5.39-1.76 44.8 44.8 0 0 1 11.063-3.052 2.5 2.5 0 0 1 .476 4.978 41.09 41.09 0 0 0 -9.8 2.76 44.325 44.325 0 0 1 -6.132 1.973 8.725 8.725 0 0 1 -1.749.188z"/><path d="m120.141 87.307a8.723 8.723 0 0 1 -1.752-.188 44.325 44.325 0 0 1 -6.132-1.973 41.09 41.09 0 0 0 -9.8-2.76 2.5 2.5 0 0 1 .476-4.978 44.8 44.8 0 0 1 11.067 3.052 41.448 41.448 0 0 0 5.389 1.76 1.992 1.992 0 0 0 1.149.03c.313-.3.375-2.016.006-3.431a2.5 2.5 0 0 1 4.831-1.287c.24.893 1.308 5.483-1.2 8.148a5.321 5.321 0 0 1 -4.034 1.627z"/><path d="m128 113.842a38.753 38.753 0 0 1 -19.532-5.371 2.5 2.5 0 1 1 2.495-4.333 33.2 33.2 0 0 0 34.074 0 2.5 2.5 0 1 1 2.5 4.333 38.753 38.753 0 0 1 -19.537 5.371z"/><path d="m107.757 221.652a80.63 80.63 0 0 1 -20.78-3.27 2.5 2.5 0 1 1 1.338-4.818c8.8 2.445 24.739 5.659 32.568-.292 3.107-2.36 4.617-5.982 4.617-11.071v-16.582a2.5 2.5 0 0 1 5 0v16.581c0 6.664-2.217 11.728-6.591 15.052-4.242 3.226-10.009 4.4-16.152 4.4z"/><path d="m148.243 221.652c-6.146 0-11.91-1.174-16.152-4.4-4.374-3.324-6.591-8.388-6.591-15.052v-16.581a2.5 2.5 0 0 1 5 0v16.581c0 5.089 1.51 8.711 4.617 11.071 7.829 5.952 23.765 2.738 32.568.292a2.5 2.5 0 1 1 1.338 4.818 80.623 80.623 0 0 1 -20.78 3.271z"/><path d="m128 253.881a2.5 2.5 0 0 1 -2.5-2.5v-23.044a2.5 2.5 0 0 1 5 0v23.044a2.5 2.5 0 0 1 -2.5 2.5z"/><path d="m144.546 94.171c-4.276 0-8.008-2.735-8.736-6.691a7.73 7.73 0 0 1 .345-4.011 2.5 2.5 0 0 1 1.656-1.553c1.238-.36 2.672-.894 4.191-1.458 1.825-.679 3.894-1.449 5.987-2.043a2.491 2.491 0 0 1 1.9.22 8 8 0 0 1 4.072 5.5c.831 4.517-2.563 8.941-7.566 9.861a10.153 10.153 0 0 1 -1.849.175zm-3.857-7.923a2.775 2.775 0 0 0 .038.327c.333 1.8 2.468 2.928 4.759 2.509s3.887-2.233 3.555-4.039a2.735 2.735 0 0 0 -.821-1.48c-1.516.478-3.015 1.036-4.475 1.579-1.058.394-2.078.773-3.056 1.104z"/><path d="m111.454 94.171a10.145 10.145 0 0 1 -1.846-.17c-5-.92-8.4-5.344-7.566-9.86a8 8 0 0 1 4.072-5.506 2.491 2.491 0 0 1 1.9-.22c2.093.594 4.162 1.364 5.987 2.043 1.519.564 2.953 1.1 4.191 1.458a2.5 2.5 0 0 1 1.656 1.553 7.73 7.73 0 0 1 .345 4.011c-.731 3.956-4.463 6.691-8.739 6.691zm-3.674-10.606a2.735 2.735 0 0 0 -.821 1.48c-.332 1.806 1.263 3.618 3.555 4.039s4.426-.7 4.759-2.509a2.8 2.8 0 0 0 .038-.327c-.978-.331-2-.71-3.056-1.1-1.455-.548-2.955-1.105-4.475-1.583z"/><path d="m144.388 122.722a3.966 3.966 0 0 1 -2.9-1.274l-8.507-9.074a2.5 2.5 0 0 1 1.337-4.163 34.858 34.858 0 0 0 9.531-3.434 2.5 2.5 0 0 1 3.663 2.017l.888 11.606a3.962 3.962 0 0 1 -2.379 3.974 4.049 4.049 0 0 1 -1.633.348zm-4.886-10.7 3.7 3.944-.4-5.166q-1.636.69-3.302 1.223z"/><path d="m111.612 122.722a4.046 4.046 0 0 1 -1.634-.348 3.962 3.962 0 0 1 -2.378-3.974l.893-11.606a2.5 2.5 0 0 1 3.663-2.017 34.858 34.858 0 0 0 9.531 3.434 2.5 2.5 0 0 1 1.337 4.163l-8.506 9.074a3.972 3.972 0 0 1 -2.906 1.274zm1.588-11.922-.4 5.166 3.7-3.944q-1.664-.531-3.3-1.222z"/></svg>