<svg xmlns="http://www.w3.org/2000/svg" width="67.9" height="60.407" viewBox="0 0 67.9 60.407">
  <g id="heart" transform="translate(0 -28)">
    <path id="Path_2" data-name="Path 2" d="M33.95,88.407a3.98,3.98,0,0,1-2.626-.981c-2.745-2.4-5.384-4.655-7.718-6.644l-.013-.013C16.75,74.947,10.848,69.907,6.737,64.947,2.135,59.4,0,54.152,0,48.41a21.208,21.208,0,0,1,5.384-14.5A18.24,18.24,0,0,1,18.964,28a16.989,16.989,0,0,1,10.662,3.687,21.842,21.842,0,0,1,4.31,4.509,21.841,21.841,0,0,1,4.31-4.509A17.117,17.117,0,0,1,48.936,28a18.239,18.239,0,0,1,13.58,5.915A21.208,21.208,0,0,1,67.9,48.41c0,5.742-2.135,10.994-6.737,16.537-4.111,4.96-10.013,10-16.856,15.821-2.334,1.989-4.986,4.244-7.732,6.657A3.98,3.98,0,0,1,33.95,88.407ZM18.964,31.979A14.312,14.312,0,0,0,8.315,36.607a17.25,17.25,0,0,0-4.337,11.8c0,4.827,1.79,9.151,5.822,14,3.886,4.695,9.681,9.628,16.378,15.331l.013.013c2.347,2,5,4.257,7.758,6.671,2.785-2.427,5.437-4.681,7.785-6.684,6.7-5.716,12.479-10.636,16.378-15.331,4.018-4.854,5.822-9.177,5.822-14a17.273,17.273,0,0,0-4.337-11.8,14.362,14.362,0,0,0-10.662-4.628A13.139,13.139,0,0,0,40.7,34.83a19.4,19.4,0,0,0-4.589,5.3,2.487,2.487,0,0,1-2.162,1.22,2.515,2.515,0,0,1-2.162-1.22,19.21,19.21,0,0,0-4.589-5.3A13.139,13.139,0,0,0,18.964,31.979Z"/>
  </g>
</svg>
