<svg xmlns="http://www.w3.org/2000/svg" width="398" height="397.992" viewBox="0 0 398 397.992">
  <g id="golem" transform="translate(0.002 -0.001)">
    <path id="Path_3" data-name="Path 3" d="M105.656,90.646a9.3,9.3,0,0,1,.078-11.528l4.146-5.182c-.191-.227-.365-.466-.578-.678L90.276,54.233a11.613,11.613,0,0,0-10.489-3.176l-8.4,1.679a11.612,11.612,0,0,0-7.385,4.947L48.622,80.752a11.206,11.206,0,0,0-1.617,3.789l-1.74,7.825a11.218,11.218,0,0,0,4.631,11.7l25.436,17.342A12.924,12.924,0,0,0,93.2,118.142l5.561-7.944a13.505,13.505,0,0,0,1.006-1.688L107.5,93.028Z" transform="translate(24.96 28.193)" fill="#c7d7e5"/>
    <path id="Path_4" data-name="Path 4" d="M98.531,106.192A12.882,12.882,0,0,1,88.1,104.348L62.662,87.006a11.181,11.181,0,0,1-4.2-5.418L50.527,84.03a20.753,20.753,0,0,0-10.6,7.526l-13.9,18.861a20.747,20.747,0,0,0-4.042,12.31V148.3a15.454,15.454,0,0,0,9.174,14.122l34.431,15.3A15.452,15.452,0,0,0,85.4,171.053l10.447-18.995,9.431-18.861Z" transform="translate(12.194 45.253)" fill="#dae6f1"/>
    <path id="Path_5" data-name="Path 5" d="M62.7,164.277l21.414,18.291a7.161,7.161,0,0,1,2.431,4.389l2.009,13.434a7.167,7.167,0,0,1-2.506,6.57l-5.521,4.586a7.165,7.165,0,0,1-8.188.679l-5.1-2.976a7.169,7.169,0,0,1-3.078-3.619l-3.465-9.017a7.165,7.165,0,0,0-3.509-3.851l-13.924-6.876a7.162,7.162,0,0,1-3.988-6.374l-.037-5.908a7.165,7.165,0,0,1,3.4-6.142l7.408-4.575a7.165,7.165,0,0,1,5-.961l4.238.742A7.171,7.171,0,0,1,62.7,164.277Z" transform="translate(21.762 89.754)" fill="#dae6f1"/>
    <path id="Path_6" data-name="Path 6" d="M103.782,240.219a7.605,7.605,0,0,0-9.089-4.1l-13.3,3.974a7.609,7.609,0,0,1-6.556-1.068l-14.18-9.979a7.61,7.61,0,0,1-3.2-6.851l1.29-15.568a7.608,7.608,0,0,1,1.743-4.249l.466-.555a7.151,7.151,0,0,1-1.3-4.042l-.037-5.908a7.165,7.165,0,0,1,3.4-6.143l7.408-4.575a7.165,7.165,0,0,1,5-.961l4.238.742a7.17,7.17,0,0,1,3.42,1.611l1.979,1.691a7.605,7.605,0,0,0,5.4-8.5L86.7,152.279a15.391,15.391,0,0,1-10.3-.777L41.967,136.2a15.43,15.43,0,0,1-7.567-7.307l-2.732.984a25.394,25.394,0,0,0-16.263,18.713L3.03,208.078A25.388,25.388,0,0,0,6.37,226.734l19.635,31.357a16.459,16.459,0,0,0,11.113,7.48l27.8,4.868a16.456,16.456,0,0,0,9.471-1.147l28.486-12.538a7.608,7.608,0,0,0,3.845-10.15Z" transform="translate(1.386 71.49)" fill="#c7d7e5"/>
    <path id="Path_7" data-name="Path 7" d="M128.436,203.3l-16.7-11.906a16.535,16.535,0,0,1-7.815-12,10.132,10.132,0,0,0-4.947,1.273l-18.19,10.105a10.149,10.149,0,0,0-5.221,8.871v36.782a10.148,10.148,0,0,0,5.22,8.87l5.424,3.013a10.158,10.158,0,0,0,7.391.975l22.4-5.6a10.15,10.15,0,0,0,7.029-6.245l11.725-30.916a24.607,24.607,0,0,1-6.313-3.229Z" transform="translate(41.911 99.506)" fill="#c7d7e5"/>
    <path id="Path_8" data-name="Path 8" d="M233.74,92.365,232,84.541a11.206,11.206,0,0,0-1.617-3.789L215,57.682a11.612,11.612,0,0,0-7.385-4.947l-8.4-1.679a11.613,11.613,0,0,0-10.489,3.176L169.7,73.259c-.065.065-.113.141-.177.207l4.523,5.653a9.3,9.3,0,0,1,.078,11.528l-2.332,2.991,7.436,14.872a13.506,13.506,0,0,0,1.006,1.688l5.573,7.944a12.924,12.924,0,0,0,17.869,3.265l25.436-17.342a11.218,11.218,0,0,0,4.625-11.7Z" transform="translate(94.03 28.193)" fill="#c7d7e5"/>
    <path id="Path_9" data-name="Path 9" d="M237.3,158.412a18.557,18.557,0,0,1,.079-8.677L247.767,108.2a12.868,12.868,0,0,1-7.43-5.11l-5.561-7.944a13.506,13.506,0,0,1-1.006-1.688l-7.436-14.872-2.077,2.671a11.181,11.181,0,0,1-10.194,4.224l2.917,11.66a16.237,16.237,0,0,1-.348,9.073L211.869,120.5a16.239,16.239,0,0,1-12.936,10.915l-21.159,3.255a117.72,117.72,0,0,1-35.785,0l-21.159-3.255A16.238,16.238,0,0,1,107.893,120.5l-4.764-14.29a16.242,16.242,0,0,1-.348-9.075L105.7,85.48a11.181,11.181,0,0,1-10.185-4.23l-2.551-3.28L85.229,93.45a13.5,13.5,0,0,1-1.006,1.688l-5.57,7.951a12.868,12.868,0,0,1-7.436,5.11l10.39,41.536a18.558,18.558,0,0,1,.079,8.677L77.431,176.85a18.564,18.564,0,0,0,2.7,14.555L93.7,211.533a15.817,15.817,0,0,0,13.114,6.974H212.173a15.817,15.817,0,0,0,13.113-6.974L238.861,191.4a18.564,18.564,0,0,0,2.7-14.555Z" transform="translate(39.502 43.246)" fill="#c7d7e5"/>
    <path id="Path_10" data-name="Path 10" d="M187.187,106.192a12.882,12.882,0,0,0,10.433-1.844l25.436-17.342a11.181,11.181,0,0,0,4.2-5.418l7.938,2.442a20.753,20.753,0,0,1,10.6,7.526l13.9,18.861a20.748,20.748,0,0,1,4.042,12.31V148.3a15.454,15.454,0,0,1-9.174,14.122l-34.431,15.3a15.452,15.452,0,0,1-19.816-6.674l-10.447-18.995L180.437,133.2Z" transform="translate(100.082 45.253)" fill="#dae6f1"/>
    <path id="Path_11" data-name="Path 11" d="M210.926,164.281l-21.414,18.291a7.161,7.161,0,0,0-2.431,4.389l-2.009,13.434a7.167,7.167,0,0,0,2.506,6.57l5.521,4.586a7.165,7.165,0,0,0,8.188.679l5.1-2.976a7.168,7.168,0,0,0,3.078-3.618l3.465-9.017a7.166,7.166,0,0,1,3.509-3.851l13.924-6.889a7.162,7.162,0,0,0,3.988-6.374l.037-5.908a7.166,7.166,0,0,0-3.4-6.143l-7.408-4.575a7.166,7.166,0,0,0-5-.961l-4.238.742A7.17,7.17,0,0,0,210.926,164.281Z" transform="translate(102.609 89.75)" fill="#dae6f1"/>
    <path id="Path_12" data-name="Path 12" d="M189.652,240.218a7.605,7.605,0,0,1,9.087-4.1l13.3,3.974a7.609,7.609,0,0,0,6.556-1.068l14.18-9.979a7.61,7.61,0,0,0,3.2-6.851l-1.29-15.568a7.608,7.608,0,0,0-1.743-4.249l-.466-.555a7.151,7.151,0,0,0,1.3-4.042l.037-5.908a7.165,7.165,0,0,0-3.4-6.142l-7.408-4.575a7.165,7.165,0,0,0-5-.961l-4.238.742a7.17,7.17,0,0,0-3.42,1.611l-1.979,1.691a7.605,7.605,0,0,1-5.4-8.5l3.753-23.451a15.391,15.391,0,0,0,10.3-.777l34.433-15.3a15.43,15.43,0,0,0,7.567-7.307l2.732.984a25.394,25.394,0,0,1,16.265,18.712L290.4,208.077a25.388,25.388,0,0,1-3.339,18.656l-19.635,31.358a16.459,16.459,0,0,1-11.113,7.479l-27.8,4.868a16.456,16.456,0,0,1-9.471-1.147l-28.486-12.538a7.608,7.608,0,0,1-3.845-10.15Z" transform="translate(103.176 71.491)" fill="#c7d7e5"/>
    <path id="Path_13" data-name="Path 13" d="M93.612,168.367l.163,15.519v.126a16.406,16.406,0,0,0,7.941,13.505l16.7,11.906a24.421,24.421,0,0,0,13.353,4.526h30.6a24.42,24.42,0,0,0,13.353-4.526l16.7-11.906a16.406,16.406,0,0,0,7.941-13.505v-.126l.163-15.519Z" transform="translate(51.924 93.386)" fill="#8ebad6"/>
    <path id="Path_14" data-name="Path 14" d="M148.681,203.3l16.7-11.906a16.535,16.535,0,0,0,7.815-12,10.132,10.132,0,0,1,4.947,1.273l18.19,10.105a10.149,10.149,0,0,1,5.221,8.871v36.782a10.148,10.148,0,0,1-5.22,8.87l-5.424,3.013a10.158,10.158,0,0,1-7.391.975l-22.4-5.6a10.15,10.15,0,0,1-7.029-6.245l-11.725-30.916A24.608,24.608,0,0,0,148.681,203.3Z" transform="translate(78.967 99.506)" fill="#c7d7e5"/>
    <path id="Path_15" data-name="Path 15" d="M205.9,96.718l-2.92-11.672c-.243-.03-.485-.039-.728-.086-11.492-2.153-35.515-6.208-53.455-6.208s-41.963,4.055-53.455,6.208c-.243.047-.485.056-.728.086l-2.917,11.66a16.242,16.242,0,0,0,.348,9.075L96.8,120.07a16.238,16.238,0,0,0,12.936,10.915l21.159,3.255a117.722,117.722,0,0,0,35.785,0l21.159-3.255A16.238,16.238,0,0,0,200.78,120.07l4.763-14.292a16.237,16.237,0,0,0,.351-9.061Z" transform="translate(50.59 43.68)" fill="#8ebad6"/>
    <path id="Path_16" data-name="Path 16" d="M209.957,39.8l-2.021-5.042a10.5,10.5,0,0,0-5.71-5.793l-15.971-6.654a10.513,10.513,0,0,0-5.2-.745L158.225,24.1a75.1,75.1,0,0,1-16.588,0L118.8,21.564a10.513,10.513,0,0,0-5.2.745L97.639,28.962a10.5,10.5,0,0,0-5.71,5.793L89.908,39.8a10.5,10.5,0,0,0,5.752,13.61l24.814,10.225a77.351,77.351,0,0,0,58.909,0L204.2,53.413A10.5,10.5,0,0,0,209.958,39.8Z" transform="translate(49.451 11.925)" fill="#dae6f1"/>
    <path id="Path_17" data-name="Path 17" d="M222.178,83.771l-7.091-8.862a12.52,12.52,0,0,1-2.759-8.644,42.06,42.06,0,0,0-6.152-23.821l-23.228,9.57a77.351,77.351,0,0,1-58.909,0L100.8,42.442a42.06,42.06,0,0,0-6.155,23.821,12.512,12.512,0,0,1-2.76,8.644l-7.092,8.862A9.3,9.3,0,0,0,84.713,95.3l4.4,5.662a11.194,11.194,0,0,0,10.912,4.145c11.492-2.153,35.515-6.208,53.455-6.208s41.963,4.055,53.455,6.208a11.194,11.194,0,0,0,10.912-4.145l4.4-5.662a9.3,9.3,0,0,0-.076-11.525Z" transform="translate(45.9 23.541)" fill="#c7d7e5"/>
    <path id="Path_18" data-name="Path 18" d="M116.12,220.161a10.085,10.085,0,0,1-2.366.923l-22.4,5.6a10.153,10.153,0,0,1-7.389-.975l-4.353-2.421v9.466a21.527,21.527,0,0,0,1.709,8.4,51.064,51.064,0,0,1,2.364,6.469l5.636,20.658a5.029,5.029,0,0,0,4.852,3.7h29.137a5.028,5.028,0,0,0,5.028-5.029V239.206a16.493,16.493,0,0,0-4.828-11.658Z" transform="translate(44.157 122.114)" fill="#dae6f1"/>
    <path id="Path_19" data-name="Path 19" d="M182.03,226.684l-22.4-5.6a10.087,10.087,0,0,1-2.366-.924l-7.38,7.38a16.5,16.5,0,0,0-4.83,11.66v27.757a5.028,5.028,0,0,0,5.028,5.029h29.137a5.029,5.029,0,0,0,4.852-3.705l5.636-20.658a51.057,51.057,0,0,1,2.363-6.466,21.531,21.531,0,0,0,1.71-8.406v-9.466l-4.353,2.421a10.153,10.153,0,0,1-7.4.975Z" transform="translate(80.456 122.116)" fill="#dae6f1"/>
    <path id="Path_20" data-name="Path 20" d="M133.342,56.147l11.8,11.96a9.152,9.152,0,0,0,12.115,1.07l11.815-8.6a6.083,6.083,0,0,0,2.323-6.391l-1.965-9.448-14.547,6a77.3,77.3,0,0,1-21.544,5.406Z" transform="translate(73.96 24.815)" fill="#ef4460"/>
    <path id="Path_21" data-name="Path 21" d="M115.258,50.741l-14.553-6L98.74,54.188a6.083,6.083,0,0,0,2.323,6.391l11.815,8.6a9.134,9.134,0,0,0,12.115-1.07l11.8-11.96a77.3,77.3,0,0,1-21.538-5.406Z" transform="translate(54.667 24.815)" fill="#ef4460"/>
    <path id="Path_22" data-name="Path 22" d="M173.158,10.651A13.308,13.308,0,0,1,162.489.2a.241.241,0,0,0-.474,0,13.308,13.308,0,0,1-10.668,10.452.233.233,0,0,0,0,.466,13.308,13.308,0,0,1,10.668,10.452.241.241,0,0,0,.474,0,13.308,13.308,0,0,1,10.668-10.452.233.233,0,0,0,0-.466Z" transform="translate(83.818 0)" fill="#f5c84c"/>
    <circle id="Ellipse_2" data-name="Ellipse 2" cx="5.107" cy="5.107" r="5.107" transform="translate(268.75 27.983)" fill="#ef4460"/>
    <circle id="Ellipse_3" data-name="Ellipse 3" cx="5.107" cy="5.107" r="5.107" transform="translate(51.098 77.733)" fill="#87d147"/>
    <circle id="Ellipse_4" data-name="Ellipse 4" cx="5.107" cy="5.107" r="5.107" transform="translate(295.18 352.908)" fill="#f5c84c"/>
    <path id="Path_23" data-name="Path 23" d="M32.128,72.7H28.605V69.175a4.774,4.774,0,0,0-9.549,0V72.7H15.535a4.774,4.774,0,1,0,0,9.549h3.526v3.524a4.774,4.774,0,1,0,9.549,0V82.247h3.523a4.774,4.774,0,1,0,0-9.549Z" transform="translate(5.97 35.72)" fill="#70d6f9"/>
    <path id="Path_24" data-name="Path 24" d="M83.958,128.907a16.664,16.664,0,0,1-9.427-2.9L49.1,108.665A15.03,15.03,0,0,1,42.862,92.91l1.74-7.826a15.014,15.014,0,0,1,2.177-5.1l15.38-23.07a15.4,15.4,0,0,1,9.857-6.6l8.4-1.679A15.467,15.467,0,0,1,94.4,52.872L113.439,71.9a9.392,9.392,0,0,1,.683.777l.12.148a3.887,3.887,0,0,1,.064,4.931l-4.145,5.182a5.406,5.406,0,0,0-.047,6.716l1.853,2.38a3.887,3.887,0,0,1,.407,4.126l-7.739,15.48a17.466,17.466,0,0,1-1.3,2.177l-5.563,7.947a16.84,16.84,0,0,1-13.818,7.145Zm-.5-72.8a7.784,7.784,0,0,0-1.522.155l-8.4,1.681a7.675,7.675,0,0,0-4.913,3.291L53.245,84.294a7.323,7.323,0,0,0-1.057,2.477L50.45,94.6a7.3,7.3,0,0,0,3.025,7.647l25.436,17.342a9.075,9.075,0,0,0,12.5-2.285l5.561-7.944a9.835,9.835,0,0,0,.715-1.2l6.643-13.288-.348-.448h0a13.156,13.156,0,0,1,.112-16.343l2.021-2.52L88.917,58.367A7.714,7.714,0,0,0,83.46,56.1Z" transform="translate(23.57 26.806)"/>
    <path id="Path_25" data-name="Path 25" d="M73.324,184.357a19.479,19.479,0,0,1-7.929-1.7l-34.433-15.3A19.359,19.359,0,0,1,19.48,149.688V124.113a24.475,24.475,0,0,1,4.8-14.614l13.9-18.861A24.811,24.811,0,0,1,50.774,81.7l7.935-2.441a3.887,3.887,0,0,1,4.8,2.377,7.291,7.291,0,0,0,2.739,3.543l25.434,17.342a9.043,9.043,0,0,0,7.3,1.284,3.887,3.887,0,0,1,4.717,2.826l6.752,27a3.887,3.887,0,0,1-.3,2.682l-9.431,18.861L90.2,174.3A19.217,19.217,0,0,1,73.324,184.357ZM57.911,87.64l-4.846,1.491a16.986,16.986,0,0,0-8.617,6.116l-13.9,18.861a16.756,16.756,0,0,0-3.288,10v25.576a11.571,11.571,0,0,0,6.868,10.571l34.433,15.3a11.5,11.5,0,0,0,14.833-5l10.447-18.995,8.717-17.44-5.569-22.275a16.955,16.955,0,0,1-9.686-2.91L61.862,91.6a14.925,14.925,0,0,1-3.95-3.964Z" transform="translate(10.806 43.866)"/>
    <path id="Path_26" data-name="Path 26" d="M77.325,218.47a11.02,11.02,0,0,1-5.558-1.5L66.665,214a11.1,11.1,0,0,1-4.748-5.58L58.449,199.4a3.265,3.265,0,0,0-1.606-1.761l-13.924-6.889a11,11,0,0,1-6.15-9.833l-.039-5.908a11.122,11.122,0,0,1,5.244-9.476l7.41-4.574a11.027,11.027,0,0,1,7.714-1.485l4.238.743a11.052,11.052,0,0,1,5.272,2.487h0l21.414,18.3a11.049,11.049,0,0,1,3.751,6.769l2.009,13.434a11.111,11.111,0,0,1-3.868,10.133l-5.519,4.586a11.056,11.056,0,0,1-7.069,2.54ZM55.192,167.087a3.264,3.264,0,0,0-1.719.49l-7.411,4.576a3.305,3.305,0,0,0-1.555,2.811l.039,5.908a3.265,3.265,0,0,0,1.825,2.918l13.922,6.887a11.024,11.024,0,0,1,5.415,5.939l3.465,9.017a3.293,3.293,0,0,0,1.409,1.656l5.1,2.974a3.283,3.283,0,0,0,3.745-.311l5.521-4.586a3.293,3.293,0,0,0,1.146-3.007l-2.009-13.435a3.265,3.265,0,0,0-1.11-2.006l-21.419-18.3a3.265,3.265,0,0,0-1.564-.737l-4.238-.743a3.317,3.317,0,0,0-.564-.054Z" transform="translate(20.374 88.364)"/>
    <path id="Path_27" data-name="Path 27" d="M69.162,275.957a20.419,20.419,0,0,1-3.523-.311l-27.8-4.869A20.375,20.375,0,0,1,24.1,261.532L4.466,230.178a29.141,29.141,0,0,1-3.843-21.5L13,149.186A29.47,29.47,0,0,1,31.742,127.6l2.73-.984a3.887,3.887,0,0,1,4.8,1.937,11.59,11.59,0,0,0,5.654,5.471l34.433,15.3a11.439,11.439,0,0,0,7.71.585,3.887,3.887,0,0,1,4.852,3.137l3.75,23.449a11.5,11.5,0,0,1-8.157,12.851,3.887,3.887,0,0,1-3.6-.777l-1.982-1.688a3.283,3.283,0,0,0-1.564-.735l-4.238-.743a3.265,3.265,0,0,0-2.287.44l-7.411,4.575a3.305,3.305,0,0,0-1.555,2.811l.039,5.908a3.265,3.265,0,0,0,.6,1.848,3.887,3.887,0,0,1-.2,4.715l-.466.555A3.692,3.692,0,0,0,64,208.337l-1.292,15.57a3.741,3.741,0,0,0,1.569,3.352l14.179,9.978a3.709,3.709,0,0,0,3.207.522l13.3-3.974a11.55,11.55,0,0,1,13.728,6.2h0l2.943,6.374a11.5,11.5,0,0,1-5.808,15.337L77.342,274.234a20.3,20.3,0,0,1-8.181,1.722ZM34.137,135A21.65,21.65,0,0,0,20.6,150.769L8.227,210.258a21.411,21.411,0,0,0,2.826,15.8L30.69,257.413a12.593,12.593,0,0,0,8.488,5.712l27.8,4.869a12.511,12.511,0,0,0,7.234-.877L102.7,254.579a3.731,3.731,0,0,0,1.881-4.967l-2.943-6.374h0a3.741,3.741,0,0,0-4.445-2.007L83.89,245.2a11.432,11.432,0,0,1-9.9-1.614l-14.18-9.979a11.54,11.54,0,0,1-4.841-10.349l1.292-15.57a11.423,11.423,0,0,1,1.538-4.866,10.917,10.917,0,0,1-.648-3.64l-.039-5.908a11.122,11.122,0,0,1,5.244-9.476l7.41-4.574a11.027,11.027,0,0,1,7.714-1.485l4.238.743a11.055,11.055,0,0,1,5.241,2.456A3.714,3.714,0,0,0,88,177.728L84.853,158.07a19.312,19.312,0,0,1-8.649-1.639l-34.433-15.3A19.317,19.317,0,0,1,34.137,135Z" transform="translate(0 70.101)"/>
    <path id="Path_28" data-name="Path 28" d="M92.51,254.872a14.006,14.006,0,0,1-6.8-1.769l-5.423-3.013a14.043,14.043,0,0,1-7.22-12.269V201.039a14.043,14.043,0,0,1,7.22-12.269l18.19-10.105a14.229,14.229,0,0,1,6.841-1.761,3.887,3.887,0,0,1,3.852,3.43,12.694,12.694,0,0,0,6,9.145c.07.044.141.09.21.14l16.7,11.906.058.042a20.7,20.7,0,0,0,5.286,2.68,3.887,3.887,0,0,1,2.357,5.05L128.05,240.212a14.045,14.045,0,0,1-9.718,8.638l-22.4,5.6A14.045,14.045,0,0,1,92.51,254.872Zm9.9-69.493-.155.087-18.19,10.105a6.265,6.265,0,0,0-3.221,5.474v36.782a6.26,6.26,0,0,0,3.22,5.472l5.425,3.015a6.237,6.237,0,0,0,4.56.6l22.4-5.6a6.267,6.267,0,0,0,4.336-3.852l10.4-27.421a25,25,0,0,1-3.65-2.209l-16.58-11.815a20.8,20.8,0,0,1-8.546-10.648Z" transform="translate(40.526 98.121)"/>
    <path id="Path_29" data-name="Path 29" d="M197.821,128.907A16.832,16.832,0,0,1,184,121.756l-5.561-7.946a17.163,17.163,0,0,1-1.3-2.177l-7.436-14.869a3.887,3.887,0,0,1,.409-4.125l2.332-2.991a5.4,5.4,0,0,0-.047-6.713l-4.521-5.653a3.887,3.887,0,0,1,.092-4.966,5.05,5.05,0,0,1,.372-.418L187.366,52.87a15.467,15.467,0,0,1,13.992-4.238l8.4,1.679a15.391,15.391,0,0,1,9.855,6.6l15.38,23.068a15.013,15.013,0,0,1,2.177,5.1l1.752,7.818a15.03,15.03,0,0,1-6.236,15.756l-25.433,17.347a16.668,16.668,0,0,1-9.427,2.9ZM177.757,95.482l6.341,12.68a9.239,9.239,0,0,0,.712,1.2l5.561,7.946a9.075,9.075,0,0,0,12.5,2.285L228.3,102.248a7.294,7.294,0,0,0,3.027-7.647h0l-1.738-7.825a7.324,7.324,0,0,0-1.057-2.477L213.157,61.226a7.675,7.675,0,0,0-4.913-3.293l-8.4-1.679a7.7,7.7,0,0,0-6.979,2.113L176.1,75.125l2.363,2.954a13.152,13.152,0,0,1,.112,16.343Z" transform="translate(92.646 26.806)"/>
    <path id="Path_30" data-name="Path 30" d="M213.556,223.78H108.2a19.674,19.674,0,0,1-16.335-8.687L78.289,194.964a22.527,22.527,0,0,1-3.265-17.6l4.255-18.438a14.744,14.744,0,0,0-.062-6.861L68.842,110.528a3.887,3.887,0,0,1,2.823-4.712,9.027,9.027,0,0,0,5.2-3.576L82.426,94.3a9.692,9.692,0,0,0,.712-1.2l7.742-15.483a3.887,3.887,0,0,1,6.544-.647l2.55,3.279a7.263,7.263,0,0,0,6.654,2.758,3.887,3.887,0,0,1,4.233,4.8l-2.917,11.66a12.332,12.332,0,0,0,.266,6.9l4.762,14.29a12.305,12.305,0,0,0,9.841,8.3l21.159,3.255a113.662,113.662,0,0,0,34.6,0l21.159-3.255a12.3,12.3,0,0,0,9.839-8.3l4.763-14.29a12.326,12.326,0,0,0,.266-6.9L211.686,87.8a3.887,3.887,0,0,1,4.233-4.8,7.254,7.254,0,0,0,6.654-2.756l2.08-2.672a3.887,3.887,0,0,1,6.544.648l7.436,14.87a9.241,9.241,0,0,0,.712,1.2l5.561,7.946a9.026,9.026,0,0,0,5.2,3.576,3.887,3.887,0,0,1,2.823,4.712l-10.385,41.536a14.769,14.769,0,0,0-.064,6.861l4.257,18.438a22.525,22.525,0,0,1-3.265,17.6L229.9,215.086a19.674,19.674,0,0,1-16.341,8.694ZM77.212,111.969l9.553,38.209a22.585,22.585,0,0,1,.095,10.494L82.605,179.11a14.726,14.726,0,0,0,2.133,11.5l13.575,20.128A11.913,11.913,0,0,0,108.2,216H213.56a11.912,11.912,0,0,0,9.889-5.259l13.578-20.13a14.726,14.726,0,0,0,2.131-11.5L234.9,160.673h0a22.6,22.6,0,0,1,.1-10.492l9.553-38.21a16.764,16.764,0,0,1-6.018-5.264l-5.561-7.946a17.164,17.164,0,0,1-1.3-2.177l-4.8-9.594a15.183,15.183,0,0,1-6.53,3.42l1.782,7.182a20.1,20.1,0,0,1-.434,11.246l-4.762,14.289A20.055,20.055,0,0,1,200.9,136.654l-21.159,3.254a121.283,121.283,0,0,1-36.967,0l-21.159-3.254a20.046,20.046,0,0,1-16.033-13.526l-4.762-14.289a20.088,20.088,0,0,1-.421-11.246l1.8-7.186a15.2,15.2,0,0,1-7.063-3.921L90.088,96.579a17.155,17.155,0,0,1-1.3,2.177L83.23,106.7a16.764,16.764,0,0,1-6.023,5.266Z" transform="translate(38.12 41.86)"/>
    <path id="Path_31" data-name="Path 31" d="M215.17,184.359A19.216,19.216,0,0,1,198.3,174.308l-10.447-18.995-9.5-18.993a3.894,3.894,0,0,1-.294-2.682l6.752-27a3.887,3.887,0,0,1,4.718-2.826,9.037,9.037,0,0,0,7.3-1.286l25.434-17.341a7.281,7.281,0,0,0,2.738-3.543,3.887,3.887,0,0,1,4.793-2.38l7.94,2.442a24.8,24.8,0,0,1,12.593,8.935l13.9,18.861a24.492,24.492,0,0,1,4.8,14.614v25.58a19.358,19.358,0,0,1-11.484,17.673l-34.434,15.3a19.482,19.482,0,0,1-7.93,1.693Zm-29.228-50.231,8.789,17.568,10.376,18.861a11.5,11.5,0,0,0,14.831,5l34.431-15.29a11.578,11.578,0,0,0,6.868-10.572V124.114a16.767,16.767,0,0,0-3.288-10.006l-13.9-18.861a16.993,16.993,0,0,0-8.617-6.114l-4.846-1.491a14.925,14.925,0,0,1-3.958,3.964L201.2,108.947a16.968,16.968,0,0,1-9.684,2.91Z" transform="translate(98.695 43.865)"/>
    <path id="Path_32" data-name="Path 32" d="M199.072,218.47A11.057,11.057,0,0,1,192,215.925l-5.519-4.586a11.111,11.111,0,0,1-3.868-10.133l2.009-13.435a11.052,11.052,0,0,1,3.75-6.767l21.415-18.291h0a11.051,11.051,0,0,1,5.273-2.487l4.238-.743a11.038,11.038,0,0,1,7.714,1.485l7.408,4.574a11.124,11.124,0,0,1,5.244,9.476l-.039,5.908a10.993,10.993,0,0,1-6.152,9.833l-13.922,6.889a3.265,3.265,0,0,0-1.6,1.757l-3.468,9.017a11.083,11.083,0,0,1-4.745,5.58l-5.105,2.976a11.01,11.01,0,0,1-5.558,1.5Zm15.767-49.85-21.415,18.3a3.28,3.28,0,0,0-1.11,2.007L190.3,202.356a3.288,3.288,0,0,0,1.146,3.005l5.521,4.586a3.284,3.284,0,0,0,3.745.311l5.1-2.976a3.286,3.286,0,0,0,1.4-1.654l3.468-9.017a11.012,11.012,0,0,1,5.415-5.939l13.92-6.887a3.265,3.265,0,0,0,1.825-2.918l.039-5.908a3.305,3.305,0,0,0-1.555-2.811l-7.41-4.575a3.279,3.279,0,0,0-2.287-.44l-4.238.743a3.283,3.283,0,0,0-1.566.737Z" transform="translate(101.224 88.366)"/>
    <path id="Path_33" data-name="Path 33" d="M227.045,275.956a20.292,20.292,0,0,1-8.181-1.724l-28.489-12.54a11.5,11.5,0,0,1-5.81-15.335l2.943-6.374h0a11.553,11.553,0,0,1,13.728-6.2l13.3,3.974a3.7,3.7,0,0,0,3.2-.522l14.182-9.978a3.731,3.731,0,0,0,1.569-3.352l-1.29-15.57a3.712,3.712,0,0,0-.852-2.075l-.466-.557a3.887,3.887,0,0,1-.2-4.72,3.252,3.252,0,0,0,.6-1.847l.039-5.908a3.305,3.305,0,0,0-1.555-2.811l-7.41-4.575a3.279,3.279,0,0,0-2.287-.44l-4.238.743a3.283,3.283,0,0,0-1.566.737l-1.981,1.691a3.887,3.887,0,0,1-3.6.777,11.5,11.5,0,0,1-8.156-12.852l3.753-23.449a3.887,3.887,0,0,1,4.863-3.139,11.421,11.421,0,0,0,7.708-.585l34.423-15.3a11.574,11.574,0,0,0,5.659-5.468,3.887,3.887,0,0,1,4.8-1.937l2.732.984a29.47,29.47,0,0,1,18.743,21.585l12.374,59.488a29.139,29.139,0,0,1-3.848,21.5l-19.631,31.356a20.375,20.375,0,0,1-13.735,9.244l-27.805,4.874a20.418,20.418,0,0,1-3.523.3Zm-32.478-32.723-2.941,6.374a3.731,3.731,0,0,0,1.881,4.966l28.486,12.538a12.54,12.54,0,0,0,7.235.877l27.8-4.865a12.593,12.593,0,0,0,8.488-5.712l19.637-31.351a21.419,21.419,0,0,0,2.828-15.8l-12.375-59.489a21.655,21.655,0,0,0-13.535-15.769,19.32,19.32,0,0,1-7.635,6.125L220,156.436a19.371,19.371,0,0,1-8.649,1.639l-3.142,19.651a3.714,3.714,0,0,0,1.046,3.215,11.053,11.053,0,0,1,5.242-2.456l4.238-.743a11.038,11.038,0,0,1,7.714,1.485l7.408,4.574a11.124,11.124,0,0,1,5.244,9.476l-.039,5.908a10.932,10.932,0,0,1-.648,3.638,11.418,11.418,0,0,1,1.538,4.863l1.292,15.573a11.54,11.54,0,0,1-4.843,10.351l-14.18,9.978a11.43,11.43,0,0,1-9.9,1.614l-13.3-3.974a3.742,3.742,0,0,0-4.445,2.007Z" transform="translate(101.788 70.102)"/>
    <path id="Path_34" data-name="Path 34" d="M163.758,219.22H133.164a28.24,28.24,0,0,1-15.668-5.286l-16.548-11.794a20.156,20.156,0,0,1-9.67-16.672L91.112,169.8A3.887,3.887,0,0,1,95,165.869H201.922a3.887,3.887,0,0,1,3.887,3.927l-.165,15.519v.227a20.117,20.117,0,0,1-9.667,16.6l-16.605,11.836a28.194,28.194,0,0,1-15.613,5.244ZM98.929,173.639l.121,11.592a12.625,12.625,0,0,0,6.1,10.365c.071.045.143.092.211.141l16.7,11.906a20.568,20.568,0,0,0,11.1,3.8h30.593a20.511,20.511,0,0,0,11.038-3.762l16.762-11.948c.068-.05.14-.1.21-.14a12.593,12.593,0,0,0,6.1-10.269l.124-11.689Z" transform="translate(50.537 92.001)"/>
    <path id="Path_35" data-name="Path 35" d="M187.381,254.87a14.045,14.045,0,0,1-3.42-.421l-22.4-5.6a14.046,14.046,0,0,1-9.718-8.638L140.113,209.3a3.887,3.887,0,0,1,2.358-5.05,20.64,20.64,0,0,0,5.286-2.68l.059-.042,16.7-11.906c.068-.05.14-.095.21-.14a12.7,12.7,0,0,0,6-9.146,3.887,3.887,0,0,1,3.851-3.428h.026a14.065,14.065,0,0,1,6.816,1.762l18.189,10.1a14.043,14.043,0,0,1,7.22,12.269v36.782a14.043,14.043,0,0,1-7.22,12.269l-5.421,3.013A14.019,14.019,0,0,1,187.381,254.87Zm-38.668-44.836,10.4,27.42a6.271,6.271,0,0,0,4.336,3.854l22.4,5.6a6.243,6.243,0,0,0,4.561-.6l5.421-3.013a6.264,6.264,0,0,0,3.223-5.474V201.038a6.265,6.265,0,0,0-3.221-5.474l-18.19-10.105-.155-.087a20.817,20.817,0,0,1-8.551,10.643l-16.58,11.82a24.894,24.894,0,0,1-3.646,2.2Z" transform="translate(77.576 98.122)"/>
    <path id="Path_36" data-name="Path 36" d="M150.181,140.894a121.3,121.3,0,0,1-18.486-1.417l-21.157-3.254A20.046,20.046,0,0,1,94.505,122.7L89.744,108.41a20.088,20.088,0,0,1-.428-11.253L92.233,85.5a3.887,3.887,0,0,1,3.3-2.92l.368-.039c12.621-2.351,36.29-6.282,54.284-6.282s41.665,3.932,54.171,6.275l.484.047a3.887,3.887,0,0,1,3.3,2.915l2.917,11.66h0a20.091,20.091,0,0,1-.434,11.245l-4.762,14.289a20.055,20.055,0,0,1-16.033,13.526l-21.159,3.254A121.491,121.491,0,0,1,150.181,140.894ZM99.149,89.85l-2.3,9.191a12.332,12.332,0,0,0,.266,6.9l4.762,14.29a12.305,12.305,0,0,0,9.841,8.3l21.159,3.255a113.661,113.661,0,0,0,34.6,0l21.159-3.255a12.3,12.3,0,0,0,9.839-8.3l4.763-14.29a12.325,12.325,0,0,0,.266-6.9l-2.3-9.193c-12.593-2.312-34.44-5.824-51.032-5.824S111.744,87.541,99.149,89.85Z" transform="translate(49.205 42.296)"/>
    <path id="Path_37" data-name="Path 37" d="M151.316,74.767a81.128,81.128,0,0,1-30.938-6.161L95.566,58.387A14.433,14.433,0,0,1,87.683,39.74L89.7,34.7a14.482,14.482,0,0,1,7.826-7.938L113.5,20.107a14.405,14.405,0,0,1,7.122-1.018l22.832,2.536a71.346,71.346,0,0,0,15.732,0l22.829-2.536a14.4,14.4,0,0,1,7.123,1.018l15.973,6.656a14.466,14.466,0,0,1,7.825,7.937l2.021,5.04a14.433,14.433,0,0,1-7.881,18.648L182.26,68.606A81.186,81.186,0,0,1,151.316,74.767ZM119.033,26.773a6.634,6.634,0,0,0-2.546.508l-15.972,6.656a6.646,6.646,0,0,0-3.6,3.649L94.9,42.626A6.637,6.637,0,0,0,98.519,51.2l24.816,10.219a73.038,73.038,0,0,0,55.951,0L204.1,51.2a6.635,6.635,0,0,0,3.622-8.572h0l-2.021-5.04a6.648,6.648,0,0,0-3.6-3.649l-15.974-6.655a6.626,6.626,0,0,0-3.265-.466l-22.832,2.537a79.046,79.046,0,0,1-17.445,0l-22.833-2.537A6.712,6.712,0,0,0,119.033,26.773Z" transform="translate(48.07 10.538)"/>
    <path id="Path_38" data-name="Path 38" d="M99.334,110.574a15.038,15.038,0,0,1-11.893-5.841l-4.4-5.662a13.152,13.152,0,0,1,.11-16.343l7.092-8.862a8.6,8.6,0,0,0,1.917-5.951,45.844,45.844,0,0,1,6.685-26.056,3.887,3.887,0,0,1,4.829-1.622L126.9,49.805a73.038,73.038,0,0,0,55.951,0l23.234-9.567a3.887,3.887,0,0,1,4.83,1.622A45.873,45.873,0,0,1,217.6,67.915a8.6,8.6,0,0,0,1.917,5.953l7.092,8.862a13.151,13.151,0,0,1,.112,16.343l-4.4,5.662a15.035,15.035,0,0,1-14.7,5.578c-12.241-2.293-35.37-6.141-52.739-6.141s-40.5,3.848-52.739,6.141A15.335,15.335,0,0,1,99.334,110.574Zm4.6-61.821a36.74,36.74,0,0,0-4.02,18.631,16.353,16.353,0,0,1-3.6,11.337l-7.091,8.862a5.4,5.4,0,0,0-.047,6.715l4.4,5.661a7.307,7.307,0,0,0,7.13,2.711c12.507-2.343,36.177-6.275,54.171-6.275s41.665,3.932,54.171,6.275a7.3,7.3,0,0,0,7.128-2.71l4.4-5.664a5.4,5.4,0,0,0-.047-6.713h0l-7.091-8.862a16.36,16.36,0,0,1-3.615-11.327,36.749,36.749,0,0,0-4.027-18.633L185.8,57a80.755,80.755,0,0,1-61.876,0Z" transform="translate(44.51 22.155)"/>
    <path id="Path_39" data-name="Path 39" d="M129.637,95.509a3.887,3.887,0,0,1-3.887-3.887V74.7a3.887,3.887,0,0,1,7.773,0V91.622A3.887,3.887,0,0,1,129.637,95.509Z" transform="translate(69.75 39.28)"/>
    <path id="Path_40" data-name="Path 40" d="M142.327,96.7a3.887,3.887,0,0,1-3.887-3.887V75.913a3.887,3.887,0,1,1,7.773,0V92.818A3.887,3.887,0,0,1,142.327,96.7Z" transform="translate(76.788 39.95)"/>
    <path id="Path_41" data-name="Path 41" d="M155.017,97.918a3.887,3.887,0,0,1-3.887-3.887V77.122a3.887,3.887,0,1,1,7.773,0v16.91a3.887,3.887,0,0,1-3.887,3.887Z" transform="translate(83.827 40.62)"/>
    <path id="Path_42" data-name="Path 42" d="M116.947,96.7a3.887,3.887,0,0,1-3.887-3.887V75.913a3.887,3.887,0,1,1,7.773,0V92.818A3.887,3.887,0,0,1,116.947,96.7Z" transform="translate(62.711 39.95)"/>
    <path id="Path_43" data-name="Path 43" d="M104.257,97.918a3.887,3.887,0,0,1-3.887-3.887V77.122a3.887,3.887,0,1,1,7.773,0v16.91a3.887,3.887,0,0,1-3.887,3.887Z" transform="translate(55.672 40.62)"/>
    <path id="Path_44" data-name="Path 44" d="M124.692,277.263H95.555a8.936,8.936,0,0,1-8.6-6.57l-5.636-20.657a48.05,48.05,0,0,0-2.192-5.971,25.307,25.307,0,0,1-2.021-9.923v-9.466a3.887,3.887,0,0,1,5.776-3.4l4.353,2.421a6.237,6.237,0,0,0,4.56.6l22.4-5.6a6.245,6.245,0,0,0,1.455-.571,3.887,3.887,0,0,1,4.6.67l7.38,7.38A20.248,20.248,0,0,1,133.6,240.6v27.758a8.924,8.924,0,0,1-8.907,8.91Zm-39.81-46.082v2.954a17.538,17.538,0,0,0,1.4,6.889,55.059,55.059,0,0,1,2.533,6.959l5.637,20.658a1.147,1.147,0,0,0,1.1.843h29.137a1.143,1.143,0,0,0,1.141-1.141V240.59a12.531,12.531,0,0,0-3.692-8.916l-5.566-5.566c-.155.047-.325.09-.488.132l-22.4,5.6A13.992,13.992,0,0,1,84.882,231.182Z" transform="translate(42.767 120.729)"/>
    <path id="Path_45" data-name="Path 45" d="M180.6,277.265H151.466a8.924,8.924,0,0,1-8.914-8.914V240.592a20.242,20.242,0,0,1,5.97-14.413l7.38-7.378a3.887,3.887,0,0,1,4.6-.67,6.246,6.246,0,0,0,1.455.571l22.4,5.6a6.256,6.256,0,0,0,4.563-.6l4.353-2.421a3.887,3.887,0,0,1,5.776,3.4v9.466a25.307,25.307,0,0,1-2.021,9.923,47.734,47.734,0,0,0-2.191,5.97l-5.637,20.66a8.938,8.938,0,0,1-8.6,6.573Zm-21.021-51.148-5.566,5.566a12.531,12.531,0,0,0-3.692,8.916v27.758a1.143,1.143,0,0,0,1.141,1.141H180.6a1.144,1.144,0,0,0,1.1-.841L187.342,248a55.1,55.1,0,0,1,2.534-6.959,17.539,17.539,0,0,0,1.4-6.889V231.2a13.97,13.97,0,0,1-8.8.659h0l-22.4-5.6C159.908,226.2,159.745,226.157,159.583,226.117Z" transform="translate(79.069 120.728)"/>
    <path id="Path_46" data-name="Path 46" d="M153.2,76.274a13.215,13.215,0,0,1-9.429-4.051l-11.8-11.96a3.887,3.887,0,0,1,2.369-6.6,73.38,73.38,0,0,0,20.456-5.138l14.558-5.995a3.887,3.887,0,0,1,5.286,2.8l1.951,9.381a9.923,9.923,0,0,1-3.829,10.4l-11.815,8.6a13.112,13.112,0,0,1-7.742,2.568ZM142.851,60.23l6.449,6.53a5.286,5.286,0,0,0,7.061.656l11.815-8.6a2.177,2.177,0,0,0,.836-2.306l-.033-.155L167.969,51.5l-10.228,4.212a80.933,80.933,0,0,1-14.891,4.523Z" transform="translate(72.573 23.429)"/>
    <path id="Path_47" data-name="Path 47" d="M119.724,76.273a13.107,13.107,0,0,1-7.742-2.568l-11.815-8.6a9.919,9.919,0,0,1-3.828-10.393l1.95-9.381a3.887,3.887,0,0,1,5.286-2.8l14.558,5.995a73.421,73.421,0,0,0,20.458,5.138,3.887,3.887,0,0,1,2.368,6.6l-11.8,11.96a13.215,13.215,0,0,1-9.431,4.048ZM104.944,51.5l-1.011,4.861c-.011.05-.022.1-.034.155a2.177,2.177,0,0,0,.836,2.306l11.815,8.6a5.227,5.227,0,0,0,7.063-.656l6.447-6.53a81.028,81.028,0,0,1-14.9-4.509h0Z" transform="translate(53.279 23.43)"/>
  </g>
</svg>
