<svg height="512" viewBox="0 0 256 256" width="512" xmlns="http://www.w3.org/2000/svg"><path d="m90.241 97.24a1.7 1.7 0 0 0 -1.679-1.532h-.016a15.8 15.8 0 0 1 -5.761-1.094 38.208 38.208 0 0 1 -1.336 4.169c-1.685 4.36-5.417 8.621-9.452 12.264a1.324 1.324 0 0 0 .13 2.062l.217.155a14.151 14.151 0 0 1 4.736 5.766l.12.269a1.332 1.332 0 0 0 2.135.419 57.035 57.035 0 0 0 12.192-16.153 37.515 37.515 0 0 1 -1.286-6.325z" fill="#edf4fc"/><path d="m177.117 67.267a3.39 3.39 0 0 1 -1.344-2.684v-8.372c0-25.144-19.337-46.473-44.437-47.96a47.4 47.4 0 0 0 -50.109 47.189v8.413a3.434 3.434 0 0 1 -1.553 2.835 15.864 15.864 0 0 0 8.872 29.02h.016a1.659 1.659 0 0 1 1.672 1.475 38 38 0 0 0 75.532 0 1.659 1.659 0 0 1 1.672-1.475h.016a15.857 15.857 0 0 0 9.663-28.441z" fill="#edf4fc"/><path d="m165.05 100.167c-12.934 6.863-21.589-2.294-37.606-3.574a107.95 107.95 0 0 0 -17.8 3.62s23.856 10.287 35.856 26.287l.128.077a38.245 38.245 0 0 0 19.645-26.267z" fill="#5290db"/><path d="m92.068 72.6c.777.317 1.585.621 2.432.9 7.919 2.64 19.757.054 26.893-2.011a21.978 21.978 0 0 1 12.214 0c5.954 1.723 15.175 3.8 22.668 2.907l4.225-.9c1.214-.405 2.348-.854 3.42-1.327a96.2 96.2 0 0 1 1.88-21.23c-14.216 2.842-28.121-2.257-35.464-5.754a22.7 22.7 0 0 0 -11.394-2.148c-.365.026-.757.048-1.148.071l.206-.008a22.6 22.6 0 0 0 -3.112 1.856c-5.027 3.594-13.628 8.751-23.825 10.891a95.277 95.277 0 0 1 1.005 16.753z" fill="#5290db"/><path d="m153.3 60.921c-4.527 1.286-8.91 3.255-12.439 4.279a6.345 6.345 0 0 0 -.292 3.318c.714 3.874 4.916 6.348 9.387 5.526s7.517-4.631 6.8-8.506a6.7 6.7 0 0 0 -3.456-4.617z" fill="#f5c84c"/><path d="m102.7 60.921c4.527 1.286 8.91 3.255 12.439 4.279a6.345 6.345 0 0 1 .292 3.318c-.714 3.874-4.916 6.348-9.387 5.526s-7.517-4.631-6.8-8.506a6.7 6.7 0 0 1 3.456-4.617z" fill="#f5c84c"/><path d="m207.736 247.241-3.624-76.348a15 15 0 0 0 -11.312-13.713l-26.466-6.662a29.6 29.6 0 0 1 -5.882-2.163l-11.933-5.883a5.381 5.381 0 0 1 -3-4.826v-11.007a37.712 37.712 0 0 1 -35.026 0v11.007a5.381 5.381 0 0 1 -3 4.826l-11.933 5.884a29.694 29.694 0 0 1 -5.881 2.162l-26.474 6.662a15 15 0 0 0 -11.317 13.713l-3.624 76.348a5.928 5.928 0 0 0 5.919 6.259h16.046a4.771 4.771 0 0 0 4.771-4.771v-56.229l10.806 57.115a4.771 4.771 0 0 0 4.688 3.885h75.012a4.771 4.771 0 0 0 4.688-3.885l10.806-57.115v56.229a4.771 4.771 0 0 0 4.771 4.771h16.046a5.928 5.928 0 0 0 5.919-6.259z" fill="#dae6f1"/><path d="m128 133.452a40.476 40.476 0 0 1 -40.161-35.258 18.364 18.364 0 0 1 -9.565-33.578.937.937 0 0 0 .453-.763v-8.414a49.961 49.961 0 0 1 15.687-36.191 49.337 49.337 0 0 1 37.069-13.493c26.238 1.555 46.789 23.718 46.789 50.456v8.372a.894.894 0 0 0 .37.7 18.357 18.357 0 0 1 -10.481 32.917 40.478 40.478 0 0 1 -40.161 35.252zm-39.444-40.243a4.17 4.17 0 0 1 4.163 3.691 35.5 35.5 0 0 0 70.562 0 4.166 4.166 0 0 1 4.154-3.695h.009a13.358 13.358 0 0 0 8.15-23.959 5.856 5.856 0 0 1 -2.321-4.666v-8.369c0-24.1-18.485-44.066-42.084-45.464a44.269 44.269 0 0 0 -33.344 12.14 44.939 44.939 0 0 0 -14.118 32.552v8.414a5.937 5.937 0 0 1 -2.655 4.907 13.365 13.365 0 0 0 7.474 24.449z"/><path d="m201.816 256h-16.045a7.28 7.28 0 0 1 -7.271-7.271v-29.566l-5.85 30.917a7.275 7.275 0 0 1 -7.144 5.92h-75.012a7.276 7.276 0 0 1 -7.145-5.921l-5.849-30.916v29.566a7.28 7.28 0 0 1 -7.271 7.271h-16.045a8.429 8.429 0 0 1 -8.416-8.9l3.624-76.328a17.43 17.43 0 0 1 13.2-16.02l26.467-6.662a27.218 27.218 0 0 0 5.385-1.98l11.934-5.884a2.86 2.86 0 0 0 1.605-2.583v-11.004a2.5 2.5 0 0 1 3.66-2.215 35.213 35.213 0 0 0 32.708 0 2.5 2.5 0 0 1 3.66 2.215v11.007a2.86 2.86 0 0 0 1.6 2.583l11.933 5.884a27.186 27.186 0 0 0 5.387 1.981l26.466 6.661a17.424 17.424 0 0 1 13.2 16l3.626 76.361a8.429 8.429 0 0 1 -8.407 8.884zm-20.816-66c.078 0 .156 0 .235.011a2.5 2.5 0 0 1 2.265 2.489v56.229a2.274 2.274 0 0 0 2.271 2.271h16.045a3.427 3.427 0 0 0 3.424-3.62v-.021l-3.625-76.347a12.437 12.437 0 0 0 -9.429-11.408l-26.466-6.661a32.215 32.215 0 0 1 -6.378-2.345l-11.933-5.884a7.828 7.828 0 0 1 -4.394-7.068v-7.106a40.713 40.713 0 0 1 -30.028 0v7.106a7.828 7.828 0 0 1 -4.394 7.068l-11.935 5.886a32.13 32.13 0 0 1 -6.377 2.344l-26.466 6.656a12.443 12.443 0 0 0 -9.43 11.428l-3.624 76.327a3.428 3.428 0 0 0 3.423 3.645h16.045a2.274 2.274 0 0 0 2.271-2.271v-56.229a2.5 2.5 0 0 1 4.956-.465l10.806 57.115a2.273 2.273 0 0 0 2.232 1.85h75.012a2.271 2.271 0 0 0 2.231-1.849l10.807-57.116a2.5 2.5 0 0 1 2.456-2.035z"/><path d="m80.188 219.987a2.5 2.5 0 0 1 -.472-4.954l98.73-19.134a2.5 2.5 0 1 1 .951 4.909l-98.73 19.133a2.436 2.436 0 0 1 -.479.046z"/><path d="m82.938 234.621a2.5 2.5 0 0 1 -.473-4.954l93.07-18.036a2.5 2.5 0 1 1 .951 4.908l-93.07 18.036a2.512 2.512 0 0 1 -.478.046z"/><path d="m86.07 250.085a2.5 2.5 0 0 1 -.472-4.954l86.96-16.853a2.5 2.5 0 0 1 .951 4.909l-86.96 16.852a2.515 2.515 0 0 1 -.479.046z"/><path d="m143.253 206.711a2.5 2.5 0 0 1 -2.2-1.313l-34.053-63.073a2.5 2.5 0 0 1 4.4-2.375l34.053 63.073a2.5 2.5 0 0 1 -2.2 3.688z"/><path d="m168.546 253.561a2.5 2.5 0 0 1 -2.2-1.313l-9.248-17.13a2.5 2.5 0 1 1 4.4-2.375l9.248 17.13a2.5 2.5 0 0 1 -2.2 3.688z"/><path d="m96.8 215.9a2.5 2.5 0 0 1 -2.2-1.313l-30.552-56.587a2.5 2.5 0 1 1 4.4-2.375l30.552 56.583a2.5 2.5 0 0 1 -2.2 3.688z"/><path d="m118.223 255.576a2.5 2.5 0 0 1 -2.2-1.312l-5.3-9.817a2.5 2.5 0 0 1 4.4-2.375l5.3 9.817a2.5 2.5 0 0 1 -2.2 3.687z"/><path d="m127.78 209.8a2.5 2.5 0 0 1 -2.2-1.313l-31.9-59.094a2.5 2.5 0 1 1 4.4-2.375l31.905 59.094a2.5 2.5 0 0 1 -2.2 3.688z"/><path d="m152.5 255.579a2.5 2.5 0 0 1 -2.2-1.312l-8.684-16.086a2.5 2.5 0 0 1 4.4-2.375l8.683 16.086a2.5 2.5 0 0 1 -2.2 3.687z"/><path d="m112.229 212.733a2.5 2.5 0 0 1 -2.2-1.312l-30.897-57.227a2.5 2.5 0 0 1 4.4-2.375l30.9 57.227a2.5 2.5 0 0 1 -2.2 3.687z"/><path d="m135.363 255.583a2.5 2.5 0 0 1 -2.2-1.312l-7.178-13.3a2.5 2.5 0 0 1 4.4-2.375l7.178 13.3a2.5 2.5 0 0 1 -2.2 3.687z"/><path d="m155.751 204.2a2.5 2.5 0 0 1 -1.94-4.073l35.59-43.94a2.5 2.5 0 1 1 3.885 3.146l-35.586 43.94a2.492 2.492 0 0 1 -1.949.927z"/><path d="m124.1 169.631a2.5 2.5 0 0 1 -1.941-4.073l21.494-26.537a2.5 2.5 0 0 1 3.885 3.147l-21.492 26.532a2.5 2.5 0 0 1 -1.946.931z"/><path d="m139.94 199.172a2.5 2.5 0 0 1 -1.94-4.072l35.192-43.449a2.5 2.5 0 1 1 3.885 3.147l-35.192 43.448a2.5 2.5 0 0 1 -1.945.926z"/><path d="m131.865 184.6a2.5 2.5 0 0 1 -1.94-4.074l27.453-33.894a2.5 2.5 0 0 1 3.885 3.146l-27.453 33.9a2.5 2.5 0 0 1 -1.945.922z"/><path d="m181 197.579a2.5 2.5 0 0 1 -1.94-4.073l22.159-27.359a2.5 2.5 0 0 1 3.885 3.147l-22.16 27.358a2.491 2.491 0 0 1 -1.944.927z"/><path d="m143.5 141h-33a2.5 2.5 0 0 1 0-5h33a2.5 2.5 0 0 1 0 5z"/><path d="m136.6 153h-21.68a2.5 2.5 0 0 1 0-5h21.68a2.5 2.5 0 0 1 0 5z"/><path d="m204.463 191.563a2.589 2.589 0 0 1 -.3-.017l-16.4-1.981a2.5 2.5 0 1 1 .6-4.964l16.4 1.98a2.5 2.5 0 0 1 -.3 4.982z"/><path d="m74.82 175.9a2.572 2.572 0 0 1 -.3-.017l-22.075-2.667a2.5 2.5 0 0 1 .6-4.965l22.074 2.667a2.5 2.5 0 0 1 -.3 4.982z"/><path d="m204.456 206.053a2.592 2.592 0 0 1 -.3-.018l-22.387-2.7a2.5 2.5 0 0 1 .6-4.965l22.388 2.7a2.5 2.5 0 0 1 -.3 4.983z"/><path d="m83.072 191.385a2.575 2.575 0 0 1 -.3-.018l-31.3-3.782a2.5 2.5 0 0 1 .6-4.965l31.3 3.782a2.5 2.5 0 0 1 -.3 4.983z"/><path d="m205.617 220.683a2.6 2.6 0 0 1 -.3-.018l-23.555-2.847a2.5 2.5 0 1 1 .6-4.964l23.556 2.846a2.5 2.5 0 0 1 -.3 4.983z"/><path d="m91.262 206.864a2.826 2.826 0 0 1 -.3-.017l-40.177-4.855a2.5 2.5 0 0 1 .6-4.965l40.177 4.855a2.5 2.5 0 0 1 -.3 4.982z"/><path d="m206.162 235.237a2.826 2.826 0 0 1 -.3-.017l-24.1-2.912a2.5 2.5 0 1 1 .6-4.965l24.1 2.912a2.5 2.5 0 0 1 -.3 4.982z"/><path d="m74.35 219.311a2.579 2.579 0 0 1 -.3-.018l-23.924-2.893a2.5 2.5 0 1 1 .6-4.964l23.92 2.89a2.5 2.5 0 0 1 -.3 4.983z"/><path d="m206.942 249.821a2.808 2.808 0 0 1 -.3-.017l-24.884-3.004a2.5 2.5 0 0 1 .6-4.965l24.882 3.006a2.5 2.5 0 0 1 -.3 4.982z"/><path d="m74.35 233.8a2.579 2.579 0 0 1 -.3-.018l-24.62-2.975a2.5 2.5 0 1 1 .6-4.965l24.62 2.975a2.5 2.5 0 0 1 -.3 4.983z"/><path d="m74.326 248.286a2.84 2.84 0 0 1 -.3-.017l-25.335-3.062a2.5 2.5 0 0 1 .6-4.965l25.332 3.058a2.5 2.5 0 0 1 -.3 4.982z"/><path d="m137.626 68.3a5.974 5.974 0 0 1 -4.539-1.815c-2.866-3.045-1.616-8.4-1.337-9.442a2.5 2.5 0 0 1 4.831 1.291c-.443 1.693-.492 4.05.148 4.726.257.27.974.318 1.919.124a50.972 50.972 0 0 0 6.676-2.177c4.1-1.527 8.752-3.258 13.4-3.7a2.5 2.5 0 1 1 .476 4.976c-3.994.383-8.317 1.991-12.131 3.411a53.755 53.755 0 0 1 -7.418 2.39 10.13 10.13 0 0 1 -2.025.216z"/><path d="m118.374 68.3a10.138 10.138 0 0 1 -2.024-.218 53.755 53.755 0 0 1 -7.418-2.39c-3.814-1.42-8.137-3.028-12.131-3.411a2.5 2.5 0 1 1 .476-4.976c4.647.444 9.3 2.175 13.4 3.7a50.972 50.972 0 0 0 6.676 2.177c.946.193 1.665.145 1.92-.125.682-.725.546-3.238.148-4.721a2.5 2.5 0 1 1 4.83-1.3c.279 1.042 1.529 6.4-1.337 9.442a5.975 5.975 0 0 1 -4.54 1.822z"/><path d="m103.956 88.3c-16.553 0-26.838-6.905-32.1-11.887a2.5 2.5 0 0 1 -.641-2.644 18.518 18.518 0 0 1 7.061-9.149 1.055 1.055 0 0 0 .351-.395 2.5 2.5 0 0 1 3.951-.645 33.611 33.611 0 0 0 12.715 7.553c7.421 2.474 19.1-.216 25.407-2.04a24.449 24.449 0 0 1 13.6 0c6.3 1.824 17.987 4.516 25.407 2.04a32.826 32.826 0 0 0 14.193-9.09 2.5 2.5 0 0 1 4.371 1.658v.882a.894.894 0 0 0 .37.7 18.438 18.438 0 0 1 5.836 7.662 2.5 2.5 0 0 1 -.552 2.713c-16.921 16.852-41.491 12.666-51.268 10.084a20.244 20.244 0 0 0 -10.317 0 71.977 71.977 0 0 1 -18.384 2.558zm23.544-8.223a25.207 25.207 0 0 1 6.435.834c24.249 6.4 38.368-1.454 45.186-7.585a13.412 13.412 0 0 0 -3.527-4.076 6.006 6.006 0 0 1 -.961-.922 39.113 39.113 0 0 1 -13.343 7.544c-8.269 2.754-20 .443-28.377-1.981a19.46 19.46 0 0 0 -10.826 0c-8.381 2.425-20.109 4.736-28.378 1.981a39.247 39.247 0 0 1 -12.748-7.036 13.506 13.506 0 0 0 -4.4 5.085c6.8 5.819 20.8 13.247 44.5 6.99a25.207 25.207 0 0 1 6.439-.834z"/><path d="m105.754 24.22a56.422 56.422 0 0 1 -9.889-.845 2.5 2.5 0 0 1 -1.265-4.288 49.348 49.348 0 0 1 36.883-13.332 49.238 49.238 0 0 1 31.017 13.58 2.5 2.5 0 0 1 -1.359 4.281 68.092 68.092 0 0 1 -26.753-1.871 20.248 20.248 0 0 0 -10.318 0 72.7 72.7 0 0 1 -18.316 2.475zm-3.353-5.1a65.671 65.671 0 0 0 20.391-2.209 25.265 25.265 0 0 1 12.87 0 66.65 66.65 0 0 0 18.887 2.279 44.266 44.266 0 0 0 -52.148-.07z"/><path d="m157.179 54.293c-11.294 0-21.56-3.822-27.92-6.852a20.284 20.284 0 0 0 -10.139-1.911c-7.692.553-22.474.38-35.11-7a2.5 2.5 0 0 1 -1.024-3.175 49.933 49.933 0 0 1 6.193-10.336 2.5 2.5 0 0 1 3.378-.537c.99.672 1.844 1.205 2.688 1.673 6.834 3.807 18.815 3.327 25.346 2.7a24.428 24.428 0 0 1 13.368 2.52c5.858 2.96 16.853 7.768 24.59 6.712a34.121 34.121 0 0 0 11.822-3.824 2.5 2.5 0 0 1 3.483 1.174 51.021 51.021 0 0 1 3.65 12.005 2.5 2.5 0 0 1 -1.382 2.683 43.377 43.377 0 0 1 -18.943 4.168zm-36.617-13.814a25.251 25.251 0 0 1 10.846 2.449c8.7 4.142 25.291 9.926 40.8 3.475a46.106 46.106 0 0 0 -1.925-6.509 39.7 39.7 0 0 1 -11.057 3.15c-8.636 1.178-19.733-3.269-27.521-7.2a19.482 19.482 0 0 0 -10.638-2.006c-8.685.831-20.638.93-28.253-3.31-.344-.191-.688-.391-1.039-.6a45.061 45.061 0 0 0 -3.231 5.389c11.017 5.617 23.517 5.712 30.218 5.233.598-.05 1.2-.071 1.8-.071z"/><path d="m81.844 59.343c-.218 0-.436 0-.656-.005a2.5 2.5 0 0 1 -2.461-2.5v-1.4a49.564 49.564 0 0 1 1.15-10.6 2.483 2.483 0 0 1 2.576-1.961c1.276.067 2.36.08 3.412.037 3.171-.129 7.036-1.339 11.489-3.595a2.5 2.5 0 0 1 1.7-.2 66.455 66.455 0 0 0 18.798 1.481 2.5 2.5 0 0 1 1.26 4.734 20.56 20.56 0 0 0 -2.772 1.651c-6.494 4.646-19.54 12.357-34.496 12.358zm2.521-11.406a44.838 44.838 0 0 0 -.624 6.36c10.234-.492 19.443-4.866 25.647-8.691a67.128 67.128 0 0 1 -10.588-1.422c-4.767 2.322-9.045 3.574-12.729 3.724-.559.024-1.12.03-1.706.029z"/><path d="m92.068 75.1a2.5 2.5 0 0 1 -.945-.186 38.353 38.353 0 0 1 -12.016-7.734 2.5 2.5 0 0 1 -.482-2.956.814.814 0 0 0 .1-.368v-7.018a2.5 2.5 0 0 1 .745-1.781 2.54 2.54 0 0 1 1.792-.719 41.912 41.912 0 0 0 9.284-.939 2.5 2.5 0 0 1 2.986 2.079 97.076 97.076 0 0 1 1.033 17.194 2.5 2.5 0 0 1 -2.5 2.425zm-8.388-10.516a32.893 32.893 0 0 0 5.92 4.084 92.752 92.752 0 0 0 -.667-9.893 47.09 47.09 0 0 1 -5.208.525v4.553a5.728 5.728 0 0 1 -.045.731z"/><path d="m87.862 98.174h-.107a18.342 18.342 0 0 1 -14.6-28.344 2.5 2.5 0 0 1 4.189 2.731 13.449 13.449 0 0 0 -.779 1.365 37.189 37.189 0 0 0 14.989 7.765 2.5 2.5 0 0 1 1.827 2.851 71.205 71.205 0 0 1 -3.167 11.987 2.5 2.5 0 0 1 -2.352 1.645zm-12.674-18.93q-.014.3-.013.593a13.325 13.325 0 0 0 10.972 13.139 66.39 66.39 0 0 0 1.885-7.1 42.011 42.011 0 0 1 -12.844-6.632z"/><path d="m163.92 74.673a2.5 2.5 0 0 1 -2.5-2.437 98.379 98.379 0 0 1 1.928-21.8 2.5 2.5 0 0 1 1.959-1.952 36.554 36.554 0 0 0 8.649-2.868 2.5 2.5 0 0 1 3.544 1.824 51.186 51.186 0 0 1 .771 8.767v7.493a2.5 2.5 0 0 1 -.628 1.658 36.785 36.785 0 0 1 -12.713 9.1 2.5 2.5 0 0 1 -1.01.215zm4.019-21.646a94.147 94.147 0 0 0 -1.53 15.076 31.049 31.049 0 0 0 6.863-5.374v-6.518a44.982 44.982 0 0 0 -.254-4.753 41.918 41.918 0 0 1 -5.079 1.569z"/><path d="m168.138 98.174a2.5 2.5 0 0 1 -2.349-1.647 71.249 71.249 0 0 1 -3.2-12.258 2.5 2.5 0 0 1 1.775-2.827 36.785 36.785 0 0 0 16.036-9.324 2.5 2.5 0 0 1 4.081.831 18.342 18.342 0 0 1 -16.234 25.223zm-.223-12.608a66.462 66.462 0 0 0 1.938 7.409 13.322 13.322 0 0 0 10.972-13.138c0-.445-.022-.889-.066-1.329a41.714 41.714 0 0 1 -12.844 7.058z"/><path d="m131.624 35.551a2.5 2.5 0 0 1 -.991-.205 19.53 19.53 0 0 0 -9.567-1.512 89.186 89.186 0 0 1 -12.969.338 2.5 2.5 0 0 1 -.758-4.831l.206-.08c.246-.1.492-.191.743-.275 5.8-1.945 16.274-6.082 21.343-11.922a2.475 2.475 0 0 1 2.139-.848 25.261 25.261 0 0 1 3.892.7 71.6 71.6 0 0 0 8.56 1.7 2.5 2.5 0 0 1 1.709 3.913 51.514 51.514 0 0 1 -12.879 12.571 2.5 2.5 0 0 1 -1.428.451zm-8.729-6.8a24.555 24.555 0 0 1 8.385 1.479 48.218 48.218 0 0 0 8.047-7.352c-1.665-.323-3.316-.7-4.94-1.129a19.292 19.292 0 0 0 -1.907-.4 41.234 41.234 0 0 1 -10.625 7.422c.345-.016.694-.024 1.045-.024z"/><path d="m156.234 43.237c-5.467 0-12.21-1.773-20.1-5.292a2.5 2.5 0 0 1 .849-4.777c7.417-.5 18.068-2.5 26.686-9.161a2.5 2.5 0 0 1 3.484.42 51.042 51.042 0 0 1 6.7 11.013 2.5 2.5 0 0 1 -1.084 3.211 39.117 39.117 0 0 1 -13.545 4.393 22.253 22.253 0 0 1 -2.99.193zm-9.019-6.485c4.467 1.29 8.307 1.751 11.334 1.337a34.67 34.67 0 0 0 9.709-2.768 46.155 46.155 0 0 0 -3.577-5.876 50.408 50.408 0 0 1 -17.466 7.307z"/><path d="m158.484 27.019a2.371 2.371 0 0 1 -.313-.02 2.5 2.5 0 0 1 -2.171-2.791c1.357-10.856 11.824-14.9 12.27-15.067a2.5 2.5 0 0 1 1.762 4.678c-.358.139-8.095 3.207-9.071 11.01a2.5 2.5 0 0 1 -2.477 2.19z"/><path d="m160.677 28.88a2.5 2.5 0 0 1 -1.839-4.192c5.554-6.038 13.686-3.957 14.029-3.865a2.5 2.5 0 0 1 -1.277 4.835c-.248-.062-5.6-1.363-9.072 2.414a2.5 2.5 0 0 1 -1.841.808z"/><path d="m98.22 27.019a2.5 2.5 0 0 1 -2.478-2.19c-.986-7.891-8.983-10.976-9.064-11.007a2.5 2.5 0 1 1 1.756-4.681c.445.167 10.912 4.211 12.269 15.067a2.5 2.5 0 0 1 -2.17 2.792 2.371 2.371 0 0 1 -.313.019z"/><path d="m96.027 28.88a2.494 2.494 0 0 1 -1.84-.808c-3.532-3.837-9.006-2.433-9.061-2.417a2.5 2.5 0 1 1 -1.289-4.832c.343-.092 8.474-2.174 14.029 3.865a2.5 2.5 0 0 1 -1.839 4.192z"/><path d="m137.431 12.807a2.5 2.5 0 0 1 -2.371-3.292 17.431 17.431 0 0 1 7.909-9.24 2.5 2.5 0 0 1 2.29 4.445 12.491 12.491 0 0 0 -5.459 6.38 2.5 2.5 0 0 1 -2.369 1.707z"/><path d="m155.382 105.186c-4.576 0-8.887-1.362-13.339-2.767-5.692-1.8-12.14-3.843-20.418-3.422-20.647 1.034-32.729-7.476-33.234-7.838a2.5 2.5 0 0 1 2.909-4.059c.15.105 11.3 7.842 30.071 6.908 9.177-.46 16.08 1.724 22.174 3.647 7.609 2.4 13.1 4.139 20.33.309a2.5 2.5 0 0 1 2.344 4.416 22.577 22.577 0 0 1 -10.837 2.806z"/><path d="m93.238 110.729a2.5 2.5 0 0 1 -1.634-4.392c11.2-9.675 34.605-12.132 35.6-12.232a2.5 2.5 0 1 1 .5 4.975c-.226.024-22.823 2.4-32.83 11.042a2.5 2.5 0 0 1 -1.636.607z"/><path d="m145.5 129a2.5 2.5 0 0 1 -2-1c-11.468-15.291-34.614-25.392-34.847-25.491a2.5 2.5 0 0 1 1.981-4.592c1 .431 24.608 10.738 36.866 27.083a2.5 2.5 0 0 1 -2 4z"/><path d="m120.876 132.876a2.5 2.5 0 0 1 -2.285-1.484 65.594 65.594 0 0 0 -20.285-25.277 2.5 2.5 0 0 1 2.81-4.135 69.826 69.826 0 0 1 22.043 27.378 2.5 2.5 0 0 1 -2.283 3.518z"/><path d="m78.411 122.585a3.756 3.756 0 0 1 -.745-.073 3.835 3.835 0 0 1 -2.748-2.192l-.12-.269a11.652 11.652 0 0 0 -3.9-4.747l-.22-.158a3.823 3.823 0 0 1 -.358-5.954c4.51-4.072 7.47-7.877 8.8-11.31a35.4 35.4 0 0 0 1.249-3.9 2.5 2.5 0 0 1 3.327-1.7 13.317 13.317 0 0 0 4.853.924 4.207 4.207 0 0 1 4.179 3.75 35.21 35.21 0 0 0 1.2 5.9 2.5 2.5 0 0 1 -.153 1.8 59.022 59.022 0 0 1 -12.722 16.875 3.849 3.849 0 0 1 -2.642 1.054zm-3.69-10.65a16.664 16.664 0 0 1 4.039 4.865 53.683 53.683 0 0 0 10.1-13.487 40.259 40.259 0 0 1 -1.02-5.116 18.077 18.077 0 0 1 -3.366-.449c-.216.658-.446 1.3-.692 1.94-1.5 3.874-4.546 7.991-9.061 12.247z"/><path d="m145.628 129.076a2.509 2.509 0 0 1 -1.279-.351l-.128-.077a2.483 2.483 0 0 1 -.721-.648c-11.468-15.291-34.614-25.392-34.847-25.491a2.5 2.5 0 0 1 .274-4.692 110.232 110.232 0 0 1 18.279-3.712 2.55 2.55 0 0 1 .437 0 69.25 69.25 0 0 1 15.9 3.551c7.611 2.4 13.113 4.139 20.34.3a2.5 2.5 0 0 1 2.526.106l.223.144a2.5 2.5 0 0 1 1.1 2.589 40.482 40.482 0 0 1 -20.931 27.99 2.5 2.5 0 0 1 -1.173.291zm-28.79-28.146c7.684 4.023 20.778 11.876 29.386 22.438a36.141 36.141 0 0 0 15.4-19.088c-7.045 2.1-13.168.166-19.584-1.858a64.726 64.726 0 0 0 -14.56-3.318 106.315 106.315 0 0 0 -10.642 1.826z"/><path d="m102.571 77.123a28.257 28.257 0 0 1 -8.862-1.251c-.855-.286-1.7-.6-2.586-.961a2.5 2.5 0 0 1 -1.554-2.39 92.1 92.1 0 0 0 -.98-16.306 2.5 2.5 0 0 1 1.959-2.815c9.628-2.021 17.759-6.814 22.885-10.479a24.755 24.755 0 0 1 2.67-1.656 2.491 2.491 0 0 1 1.543-.653h.009c.377-.02.754-.042 1.106-.067a25.191 25.191 0 0 1 12.647 2.384c6.815 3.245 20.28 8.28 33.9 5.56a2.5 2.5 0 0 1 2.939 2.95 93.392 93.392 0 0 0 -1.828 20.671 2.5 2.5 0 0 1 -1.489 2.351c-1.238.547-2.428 1.009-3.64 1.412a2.582 2.582 0 0 1 -.271.073l-4.225.9c-.074.015-.148.028-.224.037-7.809.925-17.176-1.113-23.657-2.988a19.46 19.46 0 0 0 -10.826 0c-5.675 1.638-12.887 3.228-19.516 3.228zm-7.971-6.231q.343.121.687.236c7.421 2.474 19.1-.216 25.407-2.04a24.449 24.449 0 0 1 13.6 0c4.918 1.423 14.236 3.675 21.568 2.839l3.971-.843c.518-.175 1.033-.362 1.553-.565a98.8 98.8 0 0 1 1.314-16.565c-13.736 1.587-26.656-3.28-33.443-6.513a20.284 20.284 0 0 0 -10.137-1.911l-.447.031a19.9 19.9 0 0 0 -2.333 1.426 69.019 69.019 0 0 1 -22.492 10.777 97.392 97.392 0 0 1 .752 13.128z"/><path d="m148.249 76.7c-4.97 0-9.3-3.158-10.142-7.73a8.9 8.9 0 0 1 .4-4.617 2.493 2.493 0 0 1 1.654-1.553c1.534-.446 3.3-1.1 5.165-1.8 2.334-.868 4.747-1.766 7.288-2.488a2.507 2.507 0 0 1 1.9.219 9.243 9.243 0 0 1 4.7 6.351c.961 5.224-2.991 10.345-8.81 11.417a11.978 11.978 0 0 1 -2.155.201zm-5.276-9.541a3.71 3.71 0 0 0 .052.906c.463 2.514 3.374 4.091 6.476 3.52s5.26-3.082 4.8-5.595a3.974 3.974 0 0 0 -1.415-2.339c-1.975.611-3.921 1.335-5.815 2.039-1.428.531-2.798 1.039-4.098 1.469z"/><path d="m107.752 76.7a11.88 11.88 0 0 1 -2.157-.2c-5.82-1.072-9.772-6.193-8.811-11.417a9.243 9.243 0 0 1 4.7-6.351 2.515 2.515 0 0 1 1.9-.219c2.541.722 4.954 1.62 7.288 2.488 1.867.694 3.631 1.35 5.165 1.8a2.493 2.493 0 0 1 1.654 1.553 8.9 8.9 0 0 1 .4 4.617c-.839 4.57-5.17 7.729-10.139 7.729zm-4.635-13.049a3.974 3.974 0 0 0 -1.417 2.339c-.463 2.513 1.69 5.023 4.8 5.595s6.013-1.007 6.475-3.52a3.661 3.661 0 0 0 .052-.906c-1.3-.43-2.67-.938-4.095-1.469-1.894-.704-3.84-1.428-5.815-2.039z"/><path d="m54.941 118.487h-2.33v-2.33a3.158 3.158 0 0 0 -6.315 0v2.33h-2.329a3.158 3.158 0 0 0 0 6.315h2.333v2.33a3.158 3.158 0 0 0 6.315 0v-2.332h2.33a3.158 3.158 0 0 0 0-6.315z" fill="#87d147"/><path d="m212.705 38.654a11.1 11.1 0 0 1 -8.9-8.717.2.2 0 0 0 -.395 0 11.1 11.1 0 0 1 -8.9 8.717.2.2 0 0 0 0 .386 11.1 11.1 0 0 1 8.9 8.717.2.2 0 0 0 .395 0 11.1 11.1 0 0 1 8.9-8.717.2.2 0 0 0 0-.386z" fill="#f5c84c"/><circle cx="191.662" cy="11.494" fill="#70d6f9" r="3.377"/><circle cx="67.662" cy="38.494" fill="#ef4460" r="3.377"/><circle cx="40.662" cy="153.494" fill="#f5c84c" r="3.377"/><circle cx="202.662" cy="141.494" fill="#ef4460" r="3.377"/><path d="m138.6 111.172a2.482 2.482 0 0 1 -.821-.14 30.147 30.147 0 0 0 -9.779-1.383c-1.4 0-2.745.063-3.993.187a2.5 2.5 0 1 1 -.492-4.977c1.411-.139 2.92-.21 4.485-.21a35.04 35.04 0 0 1 11.416 1.661 2.5 2.5 0 0 1 -.82 4.862z"/></svg>