<?xml version="1.0" encoding="utf-8"?>
<!-- Generator: Adobe Illustrator 24.1.1, SVG Export Plug-In . SVG Version: 6.00 Build 0)  -->
<svg version="1.1" id="Layer_1" xmlns="http://www.w3.org/2000/svg" xmlns:xlink="http://www.w3.org/1999/xlink" x="0px" y="0px"
	 viewBox="0 0 512 512" style="enable-background:new 0 0 512 512;" xml:space="preserve">
<style type="text/css">
	.st0{fill:#87D147;}
	.st1{fill:#EDF4FC;}
	.st2{fill:#FCDD86;}
	.st3{fill:#FC8C48;}
	.st4{fill:#F5C84C;}
	.st5{fill:#EF4460;}
	.st6{fill:#70D6F9;}
</style>
<path class="st0" d="M177.7,107.5c2.6,0.7,5.6,1.4,8.9,2.2c8.9,2,19.5-3.9,24.1-6.9c0.3-0.2,0.6-0.2,0.9-0.2
	c0.8,0.1,1.3,0.8,1.2,1.5c-2.1,19.4-14.7,35.8-18.7,40.5c-0.1,0.1-0.1,0.3-0.1,0.4c0.1,0.2,0.3,0.3,0.5,0.2c3.5-1.3,7.3-1.5,11-0.6
	c5.7,1.3,13.4-1.4,17.1-3c0.2-0.1,0.5-0.1,0.7-0.1c0.7,0.1,1.3,0.8,1.2,1.5c-3.5,24-21.7,33.9-30.6,37.3c-0.4,0.2-0.8,0.5-0.9,1
	c-0.2,0.8,0.3,1.5,1.1,1.7l10.2,2.3c0.2,0.1,0.5,0.2,0.7,0.4c0.5,0.5,0.6,1.4,0,2c-8.7,8.9-23.4,11.4-48.1,9.8
	c-15.2-1-22.7,3.8-26.4,8.1c-2.1,2.5-2.5,6-0.8,8.9c4.5,7.4-1.4,16.3-5.4,21c-0.3,0.3-0.7,0.6-1.1,0.7c-1,0.2-2-0.5-2.3-1.5
	c-0.7-4.8-4.2-8.8-8.9-10.1l-0.4-0.1c-0.5-0.1-1.1-0.3-1.6-0.5c-7.2-2.7-10.9-10.8-8.2-18.1c2.8-7.5,9.7-18,27-20.7
	c16-2.4,25.7-13.9,31-23c0.6-1,0.6-2.1,0-3.1c-0.8-1.5-2.7-2-4.2-1.2c-16,8.9-36.3,4.8-48.1,12.4c-11.8,7.6-32,5.6-38.7,4.7
	c-1.5-0.2-2.8-1-3.8-2.2c-0.5-0.6-1-1.3-1.4-1.9c-6.6-10.1-3.7-23.7,6.4-30.3c9.5-6.1,20.4,0.4,20.4,0.4s17.8,12.1,35.5-12.7
	c3-4.2,6.4-8,10.3-11.4C147.9,107,163.3,103.5,177.7,107.5L177.7,107.5z"/>
<path class="st1" d="M160.1,159c-0.8-1.5-2.7-2-4.2-1.2c-8.2,4.6-17.6,5.7-26.4,6.8c4.5,4,9.1,10.7,5,19.3
	c12.8-3.9,21-13.7,25.6-21.8C160.6,161.1,160.6,159.9,160.1,159z"/>
<path class="st2" d="M212.8,104c-0.3,2.4-0.7,4.8-1.3,7.1c40.4-32.8,40-74.9,37.9-92c-0.1-0.6-0.6-1.1-1.2-1.3
	c-0.8-0.2-1.6,0.3-1.8,1.2c-4,16.9-10.8,33-20,47.8c-0.3,0.4-0.7,0.7-1.3,0.8c-0.9,0.1-1.8-0.6-1.9-1.5l-1.5-14.6
	c-0.1-0.9-0.4-1.7-0.9-2.4c-1.7-2.6-5.2-3.4-7.8-1.7l-3.9,2.5c-2.2,1.4-3.1,4.2-2.3,6.6c8.5,25.6-9.3,43.7-21.9,52.8l1.6,0.4
	c8.9,2,19.5-3.9,24.1-6.9c0.3-0.2,0.6-0.2,0.9-0.2C212.4,102.6,212.9,103.3,212.8,104L212.8,104z"/>
<path class="st3" d="M205.2,187.5c-7.1,7.3-18.3,10.3-35.7,10.2c6.9,4.7,17.8,9.4,33.7,8.7c29.8-1.3,35.1-11.8,54,2.3
	c0.3,0.2,0.7,0.3,1,0.3c0.9,0,1.5-0.8,1.5-1.6c-0.5-7.3-4.1-14-9.9-18.4c-0.3-0.3-0.6-0.7-0.6-1.1c0-0.9,0.6-1.6,1.5-1.6
	c7.4-0.4,22.2-3.8,41.2-21c0.1-0.1,0.2-0.2,0.3-0.4c0.4-0.7,0.2-1.7-0.6-2.1c-8.3-4.6-17.4-7.6-26.8-8.8c-0.4,0-0.8-0.3-1-0.8
	c-0.2-0.6,0.1-1.2,0.7-1.4c20.7-6.4,37.2-22.1,44.6-42.5c0.1-0.3,0.1-0.7,0-1c-0.3-0.8-1.2-1.3-2-1c-11.5,3.8-23.7,4.6-35.6,2.6
	c-0.3-0.1-0.6-0.2-0.8-0.4c-0.6-0.6-0.6-1.6,0-2.2c4.6-4.7,14.9-17.1,13.7-34.9c0-0.5-0.3-0.9-0.7-1.2c-0.7-0.5-1.7-0.3-2.2,0.4
	c-5.9,9.3-15.8,15.3-26.8,16.3c-8,0.5-16,1.5-23.8,3.1c-5.6,7.6-12.2,14.4-19.5,20.3c-3.9,16.2-14,29.2-17.4,33.3
	c-0.1,0.1-0.1,0.3-0.1,0.4c0.1,0.2,0.3,0.3,0.5,0.2c3.5-1.3,7.3-1.5,11-0.6c5.7,1.3,13.4-1.4,17.1-3c0.2-0.1,0.5-0.1,0.7-0.1
	c0.7,0.1,1.3,0.8,1.2,1.5c-3.5,24-21.7,33.9-30.6,37.3c-0.4,0.2-0.8,0.5-0.9,1c-0.2,0.8,0.3,1.5,1.1,1.7l10.2,2.3
	c0.2,0.1,0.5,0.2,0.7,0.4C205.7,186.1,205.7,187,205.2,187.5L205.2,187.5z"/>
<path class="st3" d="M297.4,434.6c-40.2,18.7-79.9,41.8-89.1,72.4h37.6c1.2,0,2.2-0.9,2.3-2.1c1.2-17.9,17.3-35.3,22.4-40.4
	c0,0,0,0,0,0c0.9-0.9,2.3-0.9,3.2,0c4.3,4.5,5.7,11.6,6.1,15.5c0,0.2,0.1,0.4,0.1,0.6c0.4,1.2,1.8,1.8,2.9,1.4
	c27-10.3,38.4-33,41.9-41.6c0.2-0.4,0.4-0.8,0.8-1c1-0.7,2.5-0.5,3.2,0.6c3.5,4.8,4.6,11.9,5,15.9c0,0.2,0.1,0.5,0.2,0.7
	c0.5,1.2,1.8,1.7,3,1.2c35.5-15,47.1-40.9,50.1-49.7c0.1-0.4,0.3-0.7,0.6-0.9c0.9-0.9,2.4-0.8,3.3,0.1c3.7,3.9,5.6,10.4,6.4,14.3
	c0.1,0.3,0.2,0.6,0.4,0.8c0.7,1.1,2.2,1.3,3.2,0.6c29.3-20.4,32.7-51.6,33-61.1c0-0.2,0.1-0.5,0.1-0.7c0.4-1.2,1.8-1.8,3-1.4
	c6.8,2.4,12.1,8.4,14.8,12.1c0.2,0.3,0.5,0.5,0.8,0.7c1.2,0.6,2.5,0.1,3.1-1.1c16.1-32.6,8.2-66.9,5.2-77.3c-0.1-0.3-0.1-0.6-0.1-1
	c0.2-1.3,1.4-2.1,2.6-2c4.6,0.7,9.1,2.1,13.3,4.1c0.3,0.1,0.6,0.2,0.9,0.2c1.3,0.1,2.4-0.9,2.4-2.2c2-43.6-16.7-64.7-24.7-71.7
	c-0.4-0.3-0.6-0.8-0.7-1.3c-0.3-1.3,0.5-2.5,1.8-2.7c5.2-1.1,10.5-1.5,15.8-1.1c0.3,0,0.7,0,1-0.2c1.2-0.5,1.8-1.8,1.3-3
	c-13.9-35.3-44.4-49.3-55-53.2c-0.4-0.2-0.7-0.4-1-0.7c-0.8-1-0.6-2.5,0.4-3.3c3.4-2.6,7.1-4.7,11.2-6.1c0.4-0.1,0.7-0.4,0.9-0.6
	c0.8-1,0.8-2.4-0.2-3.3c-26.4-23.8-65.3-26.9-78.5-27.2c-0.5,0-1-0.2-1.4-0.6c-1-0.8-1.1-2.3-0.2-3.3c3.5-4,7.7-7.4,12.3-10
	c0.5-0.3,0.8-0.7,1-1.2c0.4-1.2-0.2-2.5-1.4-3c-32.5-11.9-65.9-9.1-83.1-6.4c-2.4,4.6-5.4,8.8-9,12.5c-0.2,0.2-0.4,0.5-0.4,0.8
	c-0.1,0.8,0.4,1.7,1.3,1.8c11.9,2.1,24.1,1.2,35.6-2.6c0.3-0.1,0.7-0.1,1,0c0.8,0.3,1.2,1.2,0.9,2c-1.1,3.1-2.4,6-4,8.9
	c35.9,10.4,72.7,27,99.9,53.9c27.7,26.9,43.1,63.9,42.7,102.4C447.8,364.6,364.4,403.4,297.4,434.6L297.4,434.6z"/>
<path class="st0" d="M53.5,321.1c-0.3,0.3-0.6,0.6-0.9,1c-2.5,3.3-1.9,8.1,1.4,10.7c4.1,3.2,9.9,8.2,10.9,16.9
	c0.6,7.5,2.6,14.7,5.9,21.5c1.4,2.7,1.2,5.9-0.6,8.3c-3,4.1-8.7,8.8-7.1,15.6c1.1,3.9,0.6,8-1.4,11.5c-1.7,2.8-1.2,6.4,1.1,8.7
	l4.2,4.2c2.7,2.8,7,3,9.9,0.6c5.6-4.6,7.1-12.7,9.7-23.6c0.1-0.4,0.2-0.8,0.3-1.2c0.2-0.7,0.5-1.4,1-1.9c1.8-2.2,5-2.5,7.2-0.7
	l14.8,12.3c8.4,7,18.5,11.4,29.3,12.8l88.3,11.2c16.2,2.2,31.2-9,33.6-25.1c3.4-20.4-15.2-37.8-35.6-34l-75.7,14.3
	c-10.1,1.6-20.4-0.3-29.3-5.4l-27.3-15.6c-2.3-1.3-4.3-3.1-5.9-5.3c-2.8-3.8-4.4-8.3-4.7-13.1c-0.4-10.2-4.3-20-11-27.7
	c-3.8-3.8-9.9-3.9-13.8-0.2L53.5,321.1L53.5,321.1z"/>
<path class="st0" d="M182.5,313c0.2,0.4,0.5,0.7,0.7,1c2.3,2.5,6.2,2.7,8.8,0.4c1.8-1.6,3.6-3.4,5.7-5.3c1.3-1.2,2.7-2.3,4.2-3.3
	l4.7,14.3c3.4,10.3,9.7,19.5,18.1,26.3l21.7,17.7c5-2.4,10-4.7,14.9-7c12.4-5.8,23.9-11.2,34.3-16.5l-44.1-17.2
	c-9.4-4-17.1-11.1-22-20l-9.8-18.1c-2-6.7-1.3-13.9,2.1-20c1.9-3.3,3.5-6.8,4.5-10.5c0.1-0.5,0.2-1.1,0.2-1.7c0-3.4-2.8-6.2-6.2-6.2
	h-7.1c-3.2,0-5.9,2.5-6.2,5.6c-0.2,2.5-1,4.9-2.1,7.1c-3.4,6.3-5.7,13.3-6.6,20.4c-0.3,2.9-2.2,5.4-4.9,6.4
	c-4.6,1.7-11.1,5.2-13.4,11.5c-0.3,0.9-0.7,1.7-1.1,2.5c-1.1,2-1.1,4.4,0,6.4L182.5,313z"/>
<g>
	<path class="st1" d="M178.9,307c-1-1.7-1.1-3.9-0.3-5.7l-13.2,8c-0.5,0.3-1,0.8-1.3,1.3c-0.9,1.7-0.2,3.7,1.4,4.6
		c6.3,3.5,13.9,3.7,20.3,0.5c-1.4-0.5-2.6-1.4-3.4-2.7L178.9,307L178.9,307z"/>
	<path class="st1" d="M225,249.1c1.5-8-1.7-16.1-8.1-21c-0.5-0.4-1.1-0.6-1.7-0.7c-1.9-0.3-3.6,1-3.9,2.9l-2.7,18.8
		c1.2-1.3,2.8-2,4.6-2.1h7.1C222.1,247,223.8,247.8,225,249.1z"/>
	<path class="st1" d="M200,245.9c1.6-0.9,3.4-1.1,5.1-0.5c-2.7-7.6-9.5-13.1-17.6-14.1c-0.6-0.1-1.2,0-1.8,0.2
		c-1.7,0.7-2.6,2.7-1.9,4.4l7.1,17.6c0.3-1.7,1.4-3.2,2.9-4.1L200,245.9L200,245.9z"/>
	<path class="st1" d="M33.6,309.6c-0.6,0.4-1.1,0.9-1.5,1.5c-1.1,1.9-0.4,4.3,1.5,5.3l17.5,9.8c0.1-2,0.9-3.8,2.4-5.2l4.4-4.1
		c2.2-2,5.1-2.9,8-2.6c-0.8-0.7-1.6-1.4-2.6-2.2C50.9,302.7,39.8,306.1,33.6,309.6L33.6,309.6z"/>
	<path class="st1" d="M78.2,295c-0.7,0-1.4,0.1-2.1,0.4c-1.9,1-2.7,3.4-1.7,5.3l9.2,17.8c1.2-1.6,2.9-2.7,4.8-3l5.9-1
		c2.9-0.5,5.8,0.3,8.1,2.2c-0.2-1-0.6-2.1-1-3.3C96.5,298.7,85.4,295.5,78.2,295L78.2,295z"/>
	<path class="st1" d="M48.7,423.5c-0.4,0.5-0.7,1.1-0.8,1.8c-0.3,2,1.1,3.8,3.1,4.1c7.9,1.3,15.9-1.5,21.1-7.5c-2,0-3.9-0.8-5.3-2.2
		l-4.2-4.2c-1.7-1.8-2.4-4.3-1.9-6.7L48.7,423.5L48.7,423.5z"/>
</g>
<path class="st0" d="M111,496.4c-0.1,0.5-0.1,1.1-0.1,1.6c0,5,4,9,9,9h88.4c9.3-30.6,48.9-53.7,89.1-72.4
	c67-31.2,150.4-70,150.4-160.2c0.4-38.5-15.1-75.6-42.7-102.4c-27.2-26.8-63.9-43.5-99.9-53.9c-8.6,16.1-23.2,28.2-40.6,33.6
	c-0.4,0.1-0.7,0.5-0.8,1c-0.1,0.6,0.4,1.1,1,1.2c9.4,1.2,18.5,4.2,26.8,8.8c0.1,0.1,0.3,0.2,0.4,0.3c0.6,0.6,0.5,1.6-0.1,2.2
	c-19,17.2-33.8,20.6-41.2,21c-0.4,0-0.9,0.2-1.1,0.6c-0.5,0.7-0.4,1.7,0.3,2.2c1.8,1.5,3.5,3.2,4.9,5.1c41.5,8,72.7,21.4,90.5,38.9
	c11.4,10.7,17.6,25.8,17.2,41.5c0,33.3-38.2,53.4-101,82.7c-8.7,4.1-17.6,8.2-26.5,12.5l0,0c16.4,2.1,28,17,26,33.4s-17,28-33.4,26
	l-72.2-9.2c-17.5,16-31.5,34.9-39.5,58.4C113.7,484.2,112.1,490.2,111,496.4z"/>
<path class="st0" d="M96.4,365c-0.2-4.7,0.9-9.4,3.3-13.5c5.3-8.7,7.5-19,6.1-29.2c-1.1-5.3-6.1-8.7-11.4-7.8l-5.9,1
	c-0.4,0.1-0.9,0.2-1.3,0.3c-4,1.4-6.1,5.7-4.7,9.7c1.7,4.8,3.6,11.8,0.1,19.4v0.1c0.2,4.7,1.9,9.3,4.7,13.1c1.5,2.2,3.5,3.9,5.9,5.3
	l3.2,1.9C96.4,365.1,96.4,365.1,96.4,365L96.4,365z"/>
<path class="st0" d="M207,252.6c0.1-1.4,0.8-2.8,1.8-3.8c-0.1-0.2-0.2-0.5-0.4-0.7c-1.7-2.9-5.5-3.9-8.4-2.2l-6.1,3.6
	c-2.8,1.6-3.8,5.1-2.5,8c1,2.3,1.6,4.7,1.8,7.2c0.2,6.6,1.5,13,3.8,19.2c0.8-1.1,1.2-2.3,1.3-3.6c0.9-7.2,3.2-14.1,6.6-20.4
	C206.1,257.5,206.8,255.1,207,252.6L207,252.6z"/>
<path class="st2" d="M234.8,369.7c15.8,1.8,27.5,15.7,26.5,31.6c5.6-2.7,11.3-5.3,16.9-7.9c61-28.4,124.2-57.8,124.2-119
	c0.4-26.3-10.1-51.6-29.1-69.9c-6.9-6.7-14.5-12.7-22.7-17.8c-10.8-6.7-22.4-12.1-34.4-16.1c-6.5-2.2-14.8-4.7-23.9-7
	c0.2,0.6,0.1,1.2-0.4,1.6c-19,17.2-33.8,20.6-41.2,21c-0.4,0-0.9,0.2-1.1,0.6c-0.5,0.7-0.4,1.7,0.3,2.2c1.8,1.5,3.5,3.2,4.9,5.1
	c41.5,8,72.7,21.4,90.5,38.9c11.4,10.7,17.6,25.8,17.2,41.5c0,33.3-38.2,53.4-101,82.7C252.6,361.2,243.7,365.3,234.8,369.7
	L234.8,369.7z"/>
<path class="st2" d="M115.7,478.3c-2,5.9-3.6,12-4.7,18.1c-0.1,0.5-0.1,1.1-0.1,1.6c0,5,4,9,9,9h33.1c0.4-4.4,1.2-8.8,2.3-13.1
	c5-18.4,15.5-34.9,30-47.2c8.5-7.2,17.5-13.7,27-19.5l-57.1-7.3C137.7,435.9,123.7,454.8,115.7,478.3L115.7,478.3z"/>
<path class="st3" d="M70.3,140.3c-0.7,0.4-1.3,0.9-1.9,1.4c-9.3,7.7-10.7,21.5-3,30.8c0.9,1.2,2.3,2,3.8,2.2
	c5.6,0.8,20.5,2.2,32.2-1.7c7.9-9.8,9.3-23.3,9.4-31.4c-6.4,2.9-13.9,2.6-20-1C90.7,140.7,79.8,134.2,70.3,140.3L70.3,140.3z"/>
<path class="st1" d="M140.6,141.6c-0.1,0.8,0.5,1.6,1.4,1.7c19.5,2.1,21.5-15.8,21.5-15.8l-11.6,0.9c-4.4,0.3-8.1,3.3-9.5,7.5
	l-1.8,5.5C140.6,141.4,140.6,141.5,140.6,141.6z"/>
<path class="st4" d="M317.6,46.9c0,0.2,0.1,0.4,0.3,0.4c8.8,1.6,15.7,8.4,17.5,17.1c0,0.1,0.1,0.2,0.3,0.3c0.2,0.1,0.4-0.1,0.5-0.3
	c1.8-8.7,8.7-15.5,17.5-17.1c0.2,0,0.3-0.2,0.3-0.3c0-0.2-0.1-0.4-0.3-0.4c-8.8-1.6-15.7-8.4-17.5-17.1c0-0.1-0.1-0.2-0.3-0.3
	c-0.2-0.1-0.4,0.1-0.5,0.3c-1.8,8.7-8.7,15.5-17.5,17.1C317.8,46.6,317.7,46.7,317.6,46.9z"/>
<path class="st5" d="M50.1,250.2c-3.5,0-6.3,2.8-6.3,6.3c0,3.5,2.8,6.3,6.3,6.3h4.7v4.7c0,0.1,0,0.1,0,0.2c0.1,3.5,2.9,6.3,6.4,6.2
	c3.5-0.1,6.3-2.9,6.2-6.4v-4.7h4.7l0,0c3.5,0,6.3-2.8,6.3-6.3c0-3.5-2.8-6.3-6.3-6.3h-4.7v-4.7c0-0.1,0-0.1,0-0.2
	c-0.1-3.5-2.9-6.3-6.4-6.2c-3.5,0.1-6.3,2.9-6.2,6.4v4.7H50.1L50.1,250.2z"/>
<circle class="st6" cx="294.7" cy="6.8" r="6.8"/>
<circle class="st4" cx="110.7" cy="278.8" r="6.8"/>
<circle class="st0" cx="78.7" cy="50.8" r="6.8"/>
<circle class="st0" cx="454.7" cy="418.8" r="6.8"/>
<path d="M123,241c-0.6,0-1.2-0.1-1.8-0.3c-2.6-0.7-4.5-2.8-5-5.4c-0.4-2.8-2.3-5.2-5.1-6.1l-0.4-0.1c-5.2-1.2-9.7-4.7-12.2-9.4
	c-2.6-4.9-3-10.6-1.1-15.8c2.8-7.6,10.5-20.8,30.9-23.9c9.6-1.7,18.2-7.1,23.8-15.1c-7.2,2.4-14.6,3.9-22.1,4.5
	c-7.6,0.9-14.8,1.8-19.5,4.8c-13,8.3-33.7,6.5-42.1,5.4c-2.8-0.4-5.3-1.9-7-4.1c-4.8-6.1-6.9-13.9-5.6-21.5
	c1.3-7.3,5.6-13.8,11.8-17.9c12-7.7,25.1,0,25.6,0.3c0.1,0.1,0.2,0.1,0.2,0.2c0.6,0.4,13.9,9.1,28.7-11.4c3.2-4.5,6.9-8.6,11.1-12.3
	c12.6-10.8,29.7-14.6,45.8-10.3c2.9,0.8,5.8,1.5,8.7,2.1c5,1.1,12.6-1.2,20.3-6.2c1.2-0.8,2.7-1.1,4.2-1c3.5,0.4,6,3.5,5.6,7
	c-1.5,14-8.1,26.5-13.5,34.6c0.8,0.1,1.5,0.2,2.4,0.4c3.1,0.7,8.4-0.3,14.1-2.7c1.1-0.4,2.2-0.6,3.3-0.4c3.5,0.5,5.9,3.7,5.4,7.2
	c-2.1,15.3-11,28.8-24.3,36.6l0.3,0.1c1.2,0.3,2.2,0.8,3.1,1.6c2.5,2.5,2.6,6.5,0.1,9c-9.5,9.8-24.6,13.1-52,11.3
	c-13.1-0.8-19.4,3-22.3,6.4c-0.7,0.8-0.8,2-0.3,3c4.5,7.5,2.4,17-5.8,26.8C127,240.1,125.1,241,123,241L123,241z M153.3,192.2
	c1.3,0,2.7,0,4.1,0.1c18.6,1.2,30.4,0,38.2-3.9l-2.5-0.5c-2.1-0.5-3.8-1.9-4.6-3.9c-1.3-3.3,0.4-7,3.7-8.3
	c8-3.1,21.3-10.6,26.1-27.3c-4.5,1.4-9.2,1.8-13.8,1c-2.7-0.7-5.5-0.6-8.1,0.4c-1.8,0.7-3.9,0.4-5.4-0.9c-2.3-1.9-2.6-5.3-0.7-7.6
	c7.5-8.9,13-19.3,16.2-30.5c-6,2.9-13.8,5.3-21,3.7c-3-0.7-6-1.4-9.1-2.2c-12.8-3.5-26.5-0.5-36.7,8.1c-3.6,3.1-6.8,6.7-9.5,10.5
	c-16.1,22.6-34.6,19.1-42.2,14c-0.8-0.5-8.7-4.5-15.1-0.4c-3.9,2.6-6.6,6.6-7.4,11.2c-0.8,4.9,0.5,9.9,3.7,13.7
	c0.1,0.2,0.3,0.3,0.5,0.3c5.6,0.8,24.8,2.8,35.3-3.9c6.7-4.3,14.9-5.3,23.7-6.3c8.5-1,17.3-2.1,24.7-6.2c2.5-1.4,5.5-1.4,8,0.1
	c3.9,2.2,5.2,7.2,2.9,11.1c-5.9,10.1-16.6,22.7-34.6,25.5c-14.5,2.2-20.5,10.7-23,17.4c-0.9,2.5-0.7,5.2,0.5,7.6
	c1.2,2.2,3.3,3.8,5.7,4.4l0.3,0.1c4.5,1.1,8.3,4.1,10.6,8.1c2-3.4,3.6-7.5,1.7-10.7c-2.8-4.7-2.2-10.6,1.3-14.7
	C131,197.5,138.8,192.2,153.3,192.2L153.3,192.2z"/>
<path d="M82.9,162.5c-1.1,0-28.1-0.4-42-14.9c-5.6-5.8-8.6-13.6-8.2-21.7c0.7-25.4,29-37.1,53.9-47.5c17.6-7.3,35.8-14.8,37.4-25.1
	c1.1-7.7-6.5-18.3-22.7-31.7c0,0,0,0,0,0c-2.1-1.8-2.4-4.9-0.6-7s4.9-2.4,7-0.6c19.6,16.2,28,29.1,26.2,40.8
	c-2.4,15.8-22.3,24.1-43.4,32.8c-23.2,9.6-47.3,19.6-47.8,38.5c-0.3,5.4,1.6,10.6,5.4,14.5c11,11.4,34.7,11.8,34.9,11.8
	c2.8,0,5,2.3,5,5C87.9,160.2,85.7,162.5,82.9,162.5L82.9,162.5z"/>
<path d="M134.5,188.8c-0.7,0-1.5-0.2-2.2-0.5c-2.5-1.2-3.5-4.2-2.4-6.7c0.8-1.7,3.3-7-3.8-13.4c-0.9-0.8-1.5-1.9-1.6-3.1
	c-0.3-2.7,1.6-5.2,4.4-5.6c8.4-1,17.2-2.1,24.6-6.2c2.5-1.4,5.5-1.4,8,0.1c3.9,2.2,5.2,7.2,2.9,11.1c-5,8.6-13.9,19.7-28.5,24.1
	C135.4,188.7,134.9,188.8,134.5,188.8L134.5,188.8z M152.1,165c-4.3,1.6-8.8,2.7-13.3,3.4c1.2,2.2,1.9,4.6,2.2,7.1
	C145.3,172.6,149.1,169.1,152.1,165L152.1,165z"/>
<path d="M58,221.7c-5.2-0.1-10.3-1.2-15-3.5c-2.4-1.2-3.5-4.1-2.4-6.5c1.1-2.5,4.1-3.7,6.6-2.5c7.8,3.7,19.2,5.2,29.4-8.2
	C96.3,175,133,174,134.5,174h0.1c2.8,0,5,2.2,5,5c0,2.8-2.2,5-5,5c-0.3,0-33.4,0.9-50.1,23C75.9,218.4,66.1,221.7,58,221.7L58,221.7
	z"/>
<path d="M211.6,116.2c-0.1,0-0.3,0-0.4,0c-2.8-0.2-4.8-2.7-4.6-5.4c-6,2.9-13.8,5.3-21,3.8l-1.6-0.4c-1.2-0.3-2.2-1-2.9-1.9
	c-1.6-2.2-1.1-5.4,1.1-7c13.2-9.5,27.3-25.4,20.1-47.2c-1.6-4.6,0.2-9.8,4.3-12.4l3.9-2.5c1.4-0.9,3-1.4,4.6-1.6
	c5.8-0.6,11.1,3.6,11.7,9.5l0.5,4.7c6.4-11.9,11.2-24.6,14.3-37.7c0.7-3.1,3.6-5.2,6.7-5c3.1,0.1,5.7,2.6,6.1,5.7
	c2.2,17.5,2.7,62.1-39.7,96.5C213.8,115.8,212.7,116.2,211.6,116.2L211.6,116.2z M211.5,97.5c1.2,0,2.3,0.3,3.3,1
	c0.7,0.4,1.3,1,1.7,1.6c16-15.5,26-36.3,28.2-58.5c-3.7,9.8-8.4,19.2-14,28c-1.1,1.7-2.9,2.8-4.9,3c-3.7,0.4-7-2.3-7.4-6L216.8,52
	c0-0.1,0-0.2-0.1-0.3c-0.2-0.3-0.6-0.4-0.9-0.2l-3.9,2.5c-0.3,0.2-0.3,0.5-0.2,0.8c6.9,20.7-1.5,36.9-11.7,47.8
	c2.8-1.2,5.4-2.6,8-4.2C209,97.8,210.2,97.5,211.5,97.5L211.5,97.5z"/>
<path d="M258.2,214.1c-1.4,0-2.8-0.5-3.9-1.3c-10.6-7.9-15.3-7-26.5-4.6c-8,1.8-16.1,2.9-24.3,3.3c-17.7,0.8-29.8-4.8-36.8-9.5
	c-1.4-0.9-2.2-2.5-2.2-4.1c0-2.8,2.2-5,5-5c0.1,0,0.2,0,0.4,0c11.5,0,19.8-1.4,25.7-4.4l-2.4-0.5c-2.1-0.5-3.8-1.9-4.6-3.9
	c-1.3-3.3,0.4-7,3.7-8.3c8-3.1,21.3-10.6,26.1-27.3c-4.5,1.4-9.2,1.8-13.8,1c-2.7-0.7-5.5-0.6-8.1,0.4c-1.8,0.7-3.9,0.4-5.4-0.9
	c-2.3-1.9-2.6-5.3-0.7-7.6c2.9-3.5,12.7-16,16.4-31.3c0.3-1.1,0.9-2,1.7-2.7c7-5.7,13.3-12.2,18.6-19.4c0.7-1,1.8-1.7,3-1.9
	c8.1-1.6,16.3-2.7,24.5-3.2c9.4-0.8,17.9-6,23-14.1c1.5-2.3,4.4-3.4,7.1-2.7c2.7,0.7,4.7,3.1,4.9,5.9c0.7,12.2-3.2,24.2-10.8,33.7
	c9.1,0.7,18.2-0.3,26.9-3.2c1.4-0.5,3-0.5,4.4,0.1c3.4,1.2,5.1,5,3.9,8.4c-6.2,17.7-19.1,32.2-35.8,40.7c5.6,1.7,11,4,16.1,6.8
	c0.6,0.3,1.2,0.8,1.6,1.3c2.4,2.7,2.2,6.8-0.4,9.3c-15.4,13.9-28.4,19.3-37.2,21.3c3.9,4.8,6.2,10.7,6.6,16.9
	c0.2,2.5-1.2,4.9-3.4,6.1C260.3,213.8,259.2,214.1,258.2,214.1L258.2,214.1z M238.9,196.5c4.7,0,9.4,1.2,13.5,3.4
	c-1.4-2.7-3.4-5-5.8-6.9c-1.4-1.2-2.3-2.9-2.4-4.7c-0.2-3.6,2.6-6.7,6.2-6.9c6.1-0.4,18.3-3,34.3-16.4c-6.5-3-13.4-5-20.5-6
	c-2.4-0.3-4.4-1.9-5.2-4.2c-1-3.2,0.8-6.6,4-7.7c16.9-5.2,30.9-17.2,38.7-33.1c-10.2,2.3-20.7,2.6-31,0.8c-1.3-0.2-2.5-0.9-3.5-1.8
	c-2.6-2.5-2.6-6.7,0-9.3c5.8-5.8,9.8-13.2,11.6-21.2c-6.4,6-14.8,9.7-23.6,10.3c-7.2,0.4-14.3,1.3-21.3,2.6
	c-5.3,6.9-11.3,13.1-17.9,18.7c-2.5,9-6.5,17.5-11.7,25.2c0.8,0.1,1.5,0.2,2.3,0.4c3.1,0.7,8.4-0.3,14.1-2.7
	c1.1-0.4,2.2-0.6,3.3-0.4c3.5,0.5,5.9,3.7,5.4,7.2c-2.1,15.3-11,28.8-24.3,36.6l0.3,0.1c1.2,0.3,2.2,0.8,3.1,1.6
	c2.5,2.5,2.6,6.5,0.1,9c-5,5-11.3,8.3-18.3,9.7c4.1,0.7,8.3,0.9,12.5,0.7c7.6-0.4,15.2-1.4,22.7-3.1
	C230,197.3,234.5,196.6,238.9,196.5L238.9,196.5z"/>
<path d="M208.3,512c-0.5,0-1-0.1-1.5-0.2c-2.6-0.8-4.1-3.6-3.3-6.2c10.2-33.8,54.4-58.1,91.8-75.5c65.7-30.6,147.6-68.7,147.6-155.7
	c0.4-37.2-14.5-72.9-41.2-98.9c-23.3-22.9-56.2-40.6-97.8-52.6c-0.3-0.1-0.6-0.2-0.9-0.4c-2.4-1.3-3.4-4.3-2.1-6.8
	c0.3-0.6,0.6-1.3,1-1.9c-10.2,2.3-20.7,2.6-31,0.8c-1.3-0.2-2.5-0.9-3.5-1.8c-2.6-2.5-2.6-6.7,0-9.3c3.3-3.3,6-7.1,8.1-11.3
	c0.7-1.4,2.1-2.4,3.7-2.7c17.5-2.8,52-5.7,85.6,6.6c2.7,1,4.6,3.5,4.8,6.3c0.2,2.9-1.2,5.6-3.8,6.9c-2.4,1.3-4.7,2.9-6.8,4.7
	c18.1,1.2,51.4,6.4,75.6,28.2c0.9,0.8,1.6,1.8,2,3c1.4,3.8-0.6,8-4.4,9.4c-2,0.7-3.9,1.6-5.8,2.7c14.4,6.3,40.3,21.6,53.1,54.1
	c0.4,1,0.6,2.1,0.5,3.2c-0.3,4-3.7,7.1-7.8,6.8c-3.1-0.2-6.2-0.1-9.3,0.2c9.5,10.1,24.2,32.3,22.4,71.9c0,1-0.3,1.9-0.7,2.8
	c-1.7,3.6-6.1,5.2-9.7,3.4c-2.5-1.2-5.1-2.2-7.8-2.9c3.4,13.9,8.5,46.1-6.6,76.7c-1.1,2.3-3.4,3.9-6,4.1c-2.5,0.2-5-0.9-6.5-2.9
	c-2.5-3.5-5.6-6.4-9.2-8.8c-1.2,13-7,41.7-34.9,61.1c-0.8,0.6-1.7,0.9-2.6,1.1c-4,0.9-7.8-1.7-8.7-5.6c-0.6-2.8-1.4-5.5-2.6-8
	c-5.4,12.5-19,34.2-50.9,47.7c-0.7,0.3-1.4,0.5-2.2,0.5c-4,0.4-7.6-2.6-7.9-6.6c-0.2-3-0.8-6-1.8-8.8c-8.7,17.9-23.8,31.9-42.4,39.2
	c-2.1,0.8-4.5,0.6-6.4-0.6c-1.9-1.2-3.2-3.2-3.5-5.5c-0.3-3.6-1.4-7.1-3-10.3c-6,6.5-17.8,20.8-18.8,35c-0.3,3.8-3.5,6.8-7.3,6.8
	H208.3L208.3,512z M267,461c1.4-1.4,3.2-2.1,5.2-2.1h0.1c1.9,0,3.8,0.8,5.1,2.2c3.7,4.2,6.1,9.4,7,15c16.3-7.4,29.2-20.9,35.9-37.5
	c0.5-1.3,1.4-2.4,2.5-3.2c3.3-2.4,7.9-1.6,10.2,1.7c2.9,4.4,4.8,9.5,5.5,14.7c31.4-14.6,41.6-38.2,44-45.3c0.8-2.4,2.8-4.2,5.3-4.8
	c2.5-0.6,5.1,0.2,6.9,2.1c3.2,3.7,5.5,8.1,6.7,12.8c24.6-19.1,27.4-46.6,27.7-54.9c0.1-2.3,1.2-4.4,3.2-5.7c1.9-1.3,4.4-1.6,6.6-0.9
	c5.6,2.2,10.5,5.7,14.4,10.3c12.9-30,5.7-60.8,3.1-69.9c-0.7-2.4-0.1-4.9,1.5-6.8c1.6-1.9,4.1-2.8,6.5-2.5c3.8,0.5,7.6,1.5,11.1,3
	c0.6-38.6-15.8-57.4-23.1-63.8c-1.2-1-2-2.4-2.3-3.9c-0.9-3.9,1.7-7.8,5.6-8.7c4.2-0.9,8.6-1.4,12.9-1.4c-14-31-42-43.4-50.5-46.6
	c-1.3-0.5-2.4-1.3-3.2-2.3c-2.5-3.2-1.9-7.8,1.3-10.3c2.6-2,5.4-3.8,8.4-5.2c-25.4-20.4-61.2-22.9-72-23.1c-1.7,0-3.3-0.7-4.6-1.8
	c-3.1-2.6-3.4-7.2-0.8-10.3c2.6-3,5.5-5.7,8.8-8c-28.3-9-56.7-7.1-72.9-4.7c-1.3,2.3-2.7,4.4-4.3,6.5c9.1,0.7,18.2-0.3,26.9-3.2
	c1.4-0.5,3-0.5,4.4,0.1c3.4,1.2,5.2,5,3.9,8.4c-0.5,1.4-1,2.7-1.6,4.1c40.6,12.4,73,30.4,96.4,53.4c28.6,27.8,44.6,66.1,44.2,106
	c0,93.4-85,132.9-153.3,164.7l-2.1-4.5l2.1,4.5c-32.9,15.3-71.3,36-83.9,62.8h27.9C245.9,483.9,260.6,467.4,267,461z"/>
<path d="M231.3,434.3c-1.5,0-3-0.1-4.5-0.3l-88.3-11.2c-11.7-1.5-22.8-6.3-31.9-13.9l-14.8-12.3c-0.1,0-0.2,0.1-0.2,0.1
	c-0.1,0.3-0.2,0.7-0.3,1l-0.7,2.8c-2.4,10.1-4.3,18.1-10.7,23.4c-5,4.1-12.2,3.7-16.7-0.9l-4.2-4.3c-3.8-4-4.6-10-1.8-14.8
	c1.3-2.4,1.6-5.2,0.8-7.9c-1.8-7.9,3-13.6,6.2-17.4c0.6-0.8,1.3-1.5,1.8-2.2c0.7-0.9,0.7-2.1,0.2-3.1c-3.5-7.3-5.7-15.2-6.4-23.2
	c-0.7-6.4-4.7-10.3-8.9-13.5c-0.6-0.4-1.1-0.9-1.6-1.4c-4.7-5.1-4.4-13.1,0.7-17.8l4.4-4.1c5.9-5.5,15.1-5.4,20.8,0.4
	c7,7.3,11.9,19.5,12.4,31c0.2,3.8,1.5,7.4,3.8,10.4c1.1,1.6,2.6,2.9,4.3,3.8l27.3,15.6c7.8,4.5,16.9,6.2,25.8,4.8l75.7-14.3
	c11.4-2.1,23.1,1.4,31.4,9.5c8.1,7.8,11.9,19.1,10,30.1C263.2,421.8,248.5,434.3,231.3,434.3L231.3,434.3z M231.1,374.5
	c-1.6,0-3.2,0.1-4.7,0.4l-75.9,14.3c-11.2,1.7-22.7-0.4-32.5-6l-27.3-15.6c-2.9-1.7-5.5-4-7.5-6.7c-3.4-4.6-5.3-10.1-5.6-15.8
	c-0.3-9-3.7-17.6-9.6-24.5c-1.9-1.8-4.9-1.8-6.8,0l-4.4,4.1c-0.6,0.5-0.9,1.3-0.8,2.1c0,0.8,0.4,1.5,1,1.9
	c5.4,4.1,11.7,10.1,12.8,20.4c0.5,6.8,2.3,13.5,5.3,19.7c2.3,4.4,1.9,9.6-1,13.6c-0.7,0.9-1.4,1.8-2.2,2.8c-3,3.6-4.8,6-4.1,8.8
	c1.4,5.1,0.7,10.6-2,15.2c-0.5,0.9-0.4,2,0.3,2.7l4.2,4.3c0.8,0.9,2.2,1,3.1,0.2c3.8-3.2,5.3-9.4,7.3-18l0.7-2.9
	c0.1-0.5,0.2-0.9,0.4-1.4c0.4-1.4,1.1-2.7,2-3.8c3.6-4.3,10-4.9,14.3-1.3l14.8,12.3c7.6,6.4,16.9,10.4,26.8,11.6l88.3,11.2
	c13.5,1.9,26.1-7.5,28.1-21c1.3-7.9-1.4-15.9-7.1-21.4C244.2,377.1,237.8,374.5,231.1,374.5L231.1,374.5z"/>
<path d="M246.4,369.1c-1.2,0-2.3-0.4-3.2-1.1l-21.7-17.7c-9.2-7.5-16-17.4-19.7-28.6l-2.4-7.3l-0.3,0.3c-1.3,1.2-2.5,2.4-3.7,3.5
	c-0.6,0.5-1.2,1-1.8,1.3c-5.3,3.2-12.2,1.5-15.4-3.8l-3.6-6c-2.1-3.5-2.1-7.8-0.1-11.3c0.3-0.6,0.6-1.2,0.8-1.9
	c2.9-8,10.5-12.3,16.4-14.5c0.9-0.4,1.6-1.2,1.7-2.2c1-7.8,3.4-15.3,7.1-22.2c0.9-1.7,1.4-3.5,1.6-5.3c0.5-5.8,5.4-10.2,11.1-10.2
	h7.1c3.5,0,6.9,1.6,9,4.5c2.1,2.8,2.8,6.4,1.8,9.7c-1.2,4.1-2.8,8.1-5,11.7c-2.6,4.8-3.2,10.4-1.7,15.6l9.5,17.6
	c4.3,7.9,11.1,14.2,19.4,17.8l44.1,17.2c1.2,0.4,2.1,1.3,2.7,2.4c1.2,2.5,0.3,5.5-2.2,6.7c-9.1,4.6-19.4,9.5-34.4,16.5
	c-4.9,2.3-9.9,4.6-14.9,7C247.9,368.9,247.2,369.1,246.4,369.1L246.4,369.1z M249.5,328.1c-10.4-4.4-19-12.3-24.4-22.3l-9.8-18.1
	c-0.2-0.4-0.3-0.8-0.4-1.2c-2.2-8.9-1.3-17.1,2.6-23.8c1.7-2.9,3.1-6.1,4-9.4c0.1-0.3,0-0.7-0.2-0.9c-0.2-0.3-0.6-0.5-1-0.5h-7.1
	c-0.6,0-1.2,0.5-1.2,1.1c-0.3,3.1-1.2,6.1-2.6,8.9c-3.2,5.8-5.2,12.1-6.1,18.7c-0.4,4.8-3.6,8.9-8.1,10.6c-3.2,1.2-8.8,3.9-10.5,8.6
	c-0.4,1.1-0.9,2.2-1.4,3.2c-0.3,0.4-0.3,0.9-0.1,1.4l3.6,6c0.2,0.3,0.5,0.5,0.9,0.6c0.3,0.1,0.7-0.1,1-0.3c1.1-1.1,2.3-2.2,3.6-3.4
	l2-1.9c1.5-1.4,3.2-2.7,4.9-3.9c0.4-0.2,0.7-0.4,1.1-0.5c2.6-0.9,5.5,0.6,6.3,3.2l4.7,14.3c3.1,9.4,8.9,17.8,16.6,24l19.3,15.7
	c4-1.9,8.1-3.8,12.1-5.6c9.7-4.5,17.3-8.1,24-11.4L249.5,328.1z"/>
<path d="M176.3,323c-4.6,0-9.1-1.2-13.1-3.4c-1.4-0.7-2.5-1.8-3.3-3.1c-2.4-4-1.1-9.2,2.9-11.6l13.2-8c1.4-0.8,3.1-0.9,4.5-0.3
	c2.5,1.1,3.7,4,2.6,6.6c-0.2,0.4-0.2,0.8,0,1.2l3.6,6c0.2,0.3,0.4,0.4,0.7,0.5c1.3,0.4,2.3,1.3,2.9,2.5c1.2,2.5,0.2,5.5-2.2,6.7
	C184.5,322,180.4,323,176.3,323L176.3,323z M174.6,309.6L174.6,309.6l-4,2.4c1.9,0.7,4,1.1,6.1,1L174.6,309.6z"/>
<path d="M225,254.1c-1.4,0-2.8-0.6-3.8-1.7c-0.2-0.3-0.6-0.4-0.9-0.4h-7.1c-0.3,0-0.6,0.2-0.8,0.4c-1.1,1.2-2.8,1.8-4.4,1.6
	c-2.7-0.4-4.6-2.9-4.2-5.7l2.7-18.8c0.2-1.5,0.8-3,1.8-4.1c2.9-3.6,8.2-4.1,11.8-1.2c7.8,6.1,11.6,16,9.9,25.7
	C229.5,252.4,227.4,254.1,225,254.1L225,254.1z M215.9,234l-1.1,8h5.3C219.4,239,218,236.2,215.9,234z"/>
<path d="M191,258.5c-2,0-3.9-1.2-4.6-3.1l-7.1-17.6c-0.6-1.4-0.8-3-0.5-4.5c0.7-4.6,5-7.7,9.6-7c9.8,1.3,18,8,21.4,17.3
	c0.4,1.1,0.4,2.3,0.1,3.4c-0.9,2.6-3.7,4-6.3,3.2c-0.3-0.1-0.7-0.1-1,0.1l-6.1,3.6c-0.3,0.2-0.5,0.5-0.5,0.8
	c-0.5,2.1-2.3,3.7-4.5,3.9C191.3,258.5,191.2,258.5,191,258.5L191,258.5z M197.3,241.7c-2-2.3-4.7-4-7.6-4.9l3,7.5L197.3,241.7
	L197.3,241.7z"/>
<path d="M48.7,330.6l-17.5-9.8c-1.4-0.8-2.6-2-3.4-3.4c-2.4-4.3-0.9-9.7,3.3-12.2c6.8-3.8,20.3-8.6,35.2,3c1,0.8,2,1.6,3,2.5
	c1.2,1.1,1.7,2.6,1.6,4.2c-0.3,2.7-2.8,4.7-5.5,4.4c-1.5-0.2-2.9,0.3-4,1.3l-4.4,4.1c-0.5,0.5-0.8,1.1-0.8,1.8
	c-0.2,2.6-2.3,4.7-5,4.7C50.2,331.3,49.4,331,48.7,330.6z M37.8,313.1l10.8,6.1c0.4-0.6,1-1.2,1.5-1.7l4.4-4.1
	c0.2-0.2,0.3-0.3,0.5-0.5C49.5,310.3,43.2,310.3,37.8,313.1z"/>
<path d="M83.7,323.6c-0.1,0-0.3,0-0.4,0c-1.7-0.1-3.2-1.2-4-2.7L70,303c-0.7-1.4-1.1-3.1-1-4.7c0.3-4.9,4.6-8.6,9.5-8.3
	c7.8,0.5,21.7,4,27.7,21.9c0.4,1.3,0.8,2.5,1.1,3.7c0.4,1.5,0,3.1-1,4.4c-1.8,2.1-4.9,2.4-7,0.7c-1.1-0.9-2.6-1.4-4.1-1.1l-5.9,1
	c-0.7,0.1-1.3,0.5-1.7,1C86.7,322.8,85.3,323.6,83.7,323.6L83.7,323.6z M94.3,309.6c-3.1-5.2-8.4-8.7-14.4-9.4l5.7,11
	c0.7-0.3,1.4-0.4,2.2-0.6l5.9-1C93.8,309.6,94,309.6,94.3,309.6L94.3,309.6z"/>
<path d="M54.8,434.6c-1.5,0-3-0.1-4.5-0.3c-1.6-0.2-3-0.9-4.2-1.8c-3.7-3-4.3-8.4-1.3-12.1l12-14.8c1.2-1.5,3.1-2.1,5-1.7
	c2.7,0.6,4.4,3.3,3.8,6c-0.2,0.7,0,1.5,0.6,2.1l4.2,4.3c0.4,0.4,1.1,0.7,1.7,0.7h0.1c1.2,0,2.4,0.5,3.3,1.3c2.1,1.8,2.2,5,0.4,7.1
	C70.6,431.2,62.9,434.7,54.8,434.6L54.8,434.6z M59,418.8L59,418.8l-4.8,5.8c3,0.1,6-0.5,8.7-1.8L59,418.8z"/>
<path d="M119.8,512c-0.8,0-1.7-0.1-2.5-0.2c-7.6-1.4-12.7-8.7-11.3-16.3c1.2-6.4,2.8-12.7,4.9-18.8c7.7-22.6,21-42.3,40.9-60.5
	c1.1-1,2.5-1.5,4-1.3l72.2,9.2c13.5,1.9,26.1-7.5,28.1-21c1.1-6.5-0.6-13.2-4.5-18.4c-4.2-5.6-10.4-9.2-17.4-10.1
	c-1.7-0.2-3.2-1.3-3.9-2.8c-1.2-2.5-0.2-5.5,2.3-6.7c9-4.4,17.9-8.5,26.6-12.6c61.1-28.4,98.2-47.9,98.2-78.2
	c0.4-14.3-5.3-28.1-15.7-37.9c-17-16.8-47.4-29.7-87.9-37.5c-1.2-0.2-2.3-0.9-3.1-1.9c-1.2-1.6-2.5-3-4-4.2
	c-1.4-1.2-2.3-2.9-2.4-4.7c-0.2-3.6,2.6-6.7,6.2-6.9c6.1-0.4,18.3-3,34.3-16.4c-6.5-3-13.4-5-20.5-6c-2.4-0.3-4.4-1.9-5.2-4.2
	c-1-3.2,0.8-6.6,4-7.7c16.2-5,29.7-16.2,37.7-31.2c1.1-2.1,3.5-3.1,5.8-2.5c43.2,12.4,77.5,31,102,55.1
	c28.6,27.8,44.6,66.1,44.2,106c0,93.4-85,132.9-153.3,164.7c-35.5,16.5-77.4,39.3-86.4,69.3c-0.6,2.1-2.6,3.6-4.8,3.6L119.8,512
	L119.8,512z M204.7,502c12.1-31.9,54.5-55.1,90.6-71.9c65.7-30.6,147.6-68.7,147.6-155.7c0.4-37.2-14.5-72.9-41.2-98.9
	c-22.6-22.2-54.1-39.5-94-51.5c-7.1,11.8-17.3,21.3-29.6,27.5c5.6,1.7,11,4,16.1,6.8c0.6,0.3,1.1,0.8,1.6,1.3
	c2.4,2.7,2.2,6.8-0.4,9.2c-14.6,13.3-27.1,18.8-35.9,21c40.6,8.2,71.5,21.9,89.3,39.5c12.3,11.7,19.1,28,18.7,45
	c0,36.2-39.3,57.1-103.9,87.2c-5,2.3-10.1,4.7-15.3,7.1c4.5,2.4,8.3,5.8,11.4,9.9c5.6,7.4,7.9,16.9,6.4,26
	c-3,18.7-20.4,31.7-39.2,29.3l-69.8-8.9c-17.6,16.5-29.6,34.4-36.5,54.7c-1.9,5.7-3.5,11.5-4.5,17.4c-0.2,1.2,0.1,2.4,0.9,3.3
	c0.8,0.9,1.9,1.5,3.1,1.4L204.7,502L204.7,502z"/>
<path d="M96.4,370.2c-0.9,0-1.7-0.2-2.5-0.7l-3.2-1.9c-2.9-1.7-5.5-4-7.5-6.7c-3.4-4.6-5.3-10-5.6-15.7v-0.3c0-0.7,0.2-1.5,0.5-2.1
	c2.6-5.5,1.4-10.8-0.3-15.6c-0.2-0.7-0.4-1.4-0.5-2.1c-1.1-6.9,3.5-13.3,10.4-14.5l5.9-1c8-1.4,15.6,3.9,17.2,11.8
	c1.8,10-0.8,22.8-6.8,32.7c-1.9,3.2-2.8,6.9-2.6,10.6c0,0.1,0,0.1,0,0.2c0,0.1,0,0.2,0,0.2C101.4,367.9,99.2,370.2,96.4,370.2
	L96.4,370.2z M96.1,319.4c-0.3,0-0.6,0-0.9,0.1l-5.9,1c-0.8,0.1-1.4,0.6-1.8,1.3c-0.4,0.6-0.5,1.4-0.2,2.2c2,5.8,3.9,13.5,0.4,21.9
	c0.4,3.4,1.7,6.6,3.7,9.4c0.3,0.4,0.6,0.8,0.9,1.2c0.7-2.6,1.7-5.1,3.1-7.3c4.7-7.7,6.6-16.8,5.5-25.7
	C100.4,321,98.4,319.4,96.1,319.4L96.1,319.4z"/>
<path d="M197,288.8c-0.2,0-0.4,0-0.6,0c-1.8-0.2-3.4-1.4-4.1-3.1c-2.5-6.6-3.9-13.6-4.2-20.7c-0.1-1.9-0.5-3.7-1.3-5.4
	c-2.4-5.2-0.5-11.5,4.5-14.4l6.1-3.6c0.4-0.2,0.9-0.5,1.3-0.7c5.7-2.4,12.2,0.3,14.6,6c0.8,1.9,0.3,4-1.1,5.4
	c-0.2,0.2-0.3,0.5-0.4,0.8c-0.3,3.1-1.2,6.1-2.6,8.9c-3.2,5.8-5.2,12.1-6.1,18.7c-0.2,2.2-1,4.2-2.2,6
	C200.2,288,198.6,288.8,197,288.8L197,288.8z M202.1,252.2c0.1-0.6,0.2-1.2,0.3-1.8l-6,3.5c-0.5,0.3-0.7,1-0.5,1.6
	c1.1,2.3,1.8,4.8,2.1,7.4c0.7-1.7,1.5-3.4,2.4-5.2C201.3,255.8,201.9,254,202.1,252.2L202.1,252.2z"/>
<path d="M312.1,214c-2.2,0-4.1-1.4-4.8-3.4c-0.9-2.6,0.5-5.5,3.2-6.3c8.1-2.7,12.7-7.8,14.1-15.6c0.7-4,0.5-8-0.4-11.9
	c-0.7-2.7,0.8-5.4,3.5-6.1c2.7-0.7,5.4,0.8,6.1,3.5c2.9,10.4,2.3,32.1-20.2,39.6C313.2,213.9,312.6,214,312.1,214L312.1,214z"/>
<path d="M353.4,243c-1.3,0-2.5-0.1-3.9-0.2c-2.7-0.3-4.8-2.7-4.5-5.5c0.3-2.7,2.7-4.8,5.5-4.5c8.5,0.9,14.8-1.9,19.2-8.4
	c2.2-3.3,3.8-7.1,4.6-11c0.4-2.7,3-4.6,5.7-4.2c2.7,0.4,4.6,3,4.2,5.7C382.6,225.1,374.2,243,353.4,243L353.4,243z"/>
<path d="M360.6,289.7c-2-1.9-2-5.1-0.1-7.1c1.9-2,5.1-2,7.1-0.1c6.1,5.9,12.8,7.6,20.3,5.3c3.8-1.2,7.3-3.2,10.4-5.8
	c2-1.8,5-1.7,6.9,0.3c1.9,2,1.9,5.1-0.1,7.1c-6.4,5.9-14.7,9.3-23.4,9.5C373.7,298.7,366.1,295.4,360.6,289.7z"/>
<path d="M358.9,353.5c-10.8-0.1-31.5-6.6-32.5-30.3c0,0,0,0,0,0c-0.1-2.8,2-5.1,4.8-5.2c2.7-0.1,5.1,2,5.2,4.8
	c0.4,8.5,4,14.3,11.1,17.8c3.6,1.7,7.5,2.7,11.5,2.9c2.8,0,5,2.3,5,5C364,351.3,361.7,353.6,358.9,353.5L358.9,353.5z"/>
<path d="M301.3,387c-0.3,0-0.6,0-1-0.1c-10.9-2.1-30.6-12.5-27.2-36.7c0.4-2.7,2.9-4.5,5.6-4.2c2.7,0.3,4.7,2.8,4.3,5.6
	c-1.2,8.8,1.4,15.4,8,20.3c3.4,2.4,7.2,4.2,11.2,5.2c2.3,0.5,4,2.5,4,4.9C306.3,384.8,304,387,301.3,387L301.3,387z"/>
<path d="M154.2,477.3c-11.1,0-25-4.6-30.8-21.9c-0.9-2.6,0.5-5.5,3.1-6.3c2.6-0.9,5.5,0.5,6.3,3.1c2.8,8.4,8.1,13.2,16.2,14.6
	c4.1,0.7,8.3,0.5,12.3-0.4c2.6-0.7,5.3,0.8,6.1,3.4c0.8,2.7-0.8,5.4-3.4,6.2C160.9,476.9,157.6,477.3,154.2,477.3L154.2,477.3z"/>
<path d="M261.3,406.3c-0.1,0-0.2,0-0.4,0c-2.8-0.2-4.8-2.6-4.6-5.4c0.7-13.2-9-24.7-22.1-26.3c-1.7-0.2-3.2-1.3-3.9-2.8
	c-1.2-2.5-0.2-5.5,2.3-6.7c9-4.4,17.9-8.5,26.6-12.6c61.1-28.4,98.2-47.9,98.2-78.2c0.4-14.3-5.3-28.1-15.7-37.9
	c-17-16.8-47.4-29.7-87.9-37.5c-1.2-0.2-2.3-0.9-3.1-1.9c-1.2-1.6-2.5-3-4-4.2c-1.4-1.2-2.3-2.9-2.4-4.7c-0.2-3.6,2.6-6.7,6.2-6.9
	c6.4-0.4,19.6-3.3,37-18.7c0-0.1,0-0.1,0-0.2c0.7-2.7,3.4-4.3,6.1-3.6c8,2,16.2,4.4,24.2,7.1c12.5,4.1,24.4,9.6,35.5,16.6
	c8.5,5.3,16.4,11.5,23.5,18.5c19.9,19.2,31,45.8,30.5,73.5c0,64.4-64.6,94.4-127.1,123.5c-5.6,2.6-11.2,5.2-16.8,7.9
	C262.8,406.2,262,406.3,261.3,406.3L261.3,406.3z M294.8,169.4c-14.4,12.9-26.7,18.3-35.4,20.5c40.6,8.2,71.5,21.9,89.3,39.5
	c12.3,11.7,19.1,28,18.7,45c0,36.2-39.3,57.1-103.9,87.2c-5,2.3-10.1,4.7-15.2,7.1c9.4,5.1,16,14.2,17.7,24.8
	c3.4-1.6,6.8-3.2,10.1-4.7c59.6-27.8,121.3-56.5,121.3-114.4c0.4-25-9.6-49-27.6-66.4c-6.6-6.5-13.9-12.2-21.8-17.1
	c-10.5-6.5-21.6-11.7-33.3-15.5C308.1,173.2,301.3,171.2,294.8,169.4L294.8,169.4z"/>
<path d="M119.8,512c-0.8,0-1.7-0.1-2.5-0.2c-7.6-1.4-12.7-8.7-11.3-16.3c1.2-6.4,2.8-12.7,4.9-18.9c7.7-22.6,21-42.3,40.9-60.5
	c1.1-1,2.5-1.5,4-1.3l57.1,7.3c1.5,0.2,2.8,1,3.6,2.3c1.4,2.4,0.7,5.4-1.6,6.9c-9.3,5.6-18.1,12-26.4,19
	c-13.8,11.7-23.7,27.3-28.4,44.7c-1.1,4-1.8,8.2-2.2,12.3c-0.2,2.6-2.4,4.5-5,4.5H119.8L119.8,512z M148.5,502
	c0.5-3.2,1.1-6.3,1.9-9.4c5.2-19.4,16.2-36.8,31.6-49.8c5.2-4.5,10.6-8.6,16.2-12.5l-41.3-5.3c-17.6,16.5-29.6,34.4-36.5,54.7
	c-1.9,5.7-3.5,11.5-4.5,17.4c0,0.2-0.1,0.5-0.1,0.7c0,2.2,1.8,4,4,4H148.5L148.5,502z"/>
<path d="M82.6,180.7c-4.7,0-9.4-0.3-14.1-1c-2.8-0.4-5.3-1.9-7-4.1c-0.6-0.7-1.2-1.5-1.7-2.3c-8.1-12.4-4.6-29.1,7.9-37.2
	c12-7.7,25.1,0,25.6,0.3l0.2,0.1c4.7,2.6,10.4,2.8,15.3,0.6c0.6-0.3,1.3-0.4,2.1-0.4c2.8,0,5,2.3,4.9,5.1c-0.1,9.8-2,23.8-10.5,34.4
	c-0.6,0.8-1.4,1.3-2.3,1.6C96.3,179.8,89.4,180.8,82.6,180.7L82.6,180.7z M98.3,168.8c4-6.1,6.4-13.1,7-20.4
	c-5.9,0.8-12-0.4-17.2-3.4c-0.7-0.4-8.6-4.6-15.1-0.5c-3.9,2.6-6.6,6.6-7.4,11.2c-0.8,4.9,0.5,9.9,3.7,13.7c0.1,0.2,0.3,0.3,0.5,0.3
	C73.9,170.4,87.6,171.9,98.3,168.8L98.3,168.8z"/>
<path d="M145.1,148.4c-1.2,0-2.5-0.1-3.7-0.2c-0.4,0-0.9-0.1-1.3-0.3c-3.4-1.1-5.3-4.8-4.2-8.2l1.8-5.5c2-6.1,7.4-10.4,13.8-10.9
	l11.6-0.9c0.3,0,0.6,0,0.9,0c2.7,0.3,4.7,2.8,4.4,5.5c-0.8,6.1-3.8,11.6-8.5,15.6C155.7,146.9,150.5,148.6,145.1,148.4L145.1,148.4z
	 M152.3,133.3c-2.4,0.2-4.4,1.8-5.1,4l-0.3,1c3.8-0.2,7.2-2.2,9.4-5.3L152.3,133.3z"/>
</svg>
